<svg width="640" height="370" viewBox="0 0 640 370" xmlns="http://www.w3.org/2000/svg">
  <g fill="none" fill-rule="evenodd">
    <path d="M442 59c30.3-.17 48.03 1.16 53.22 4 5.18 2.83 6.11 12.83 2.78 30h-56V59z" fill="#DEF0F5"/>
    <path d="M184.42 272.83c-.42 3.34-2.06 5.74-5.15 6.9-27.45 10.46-60.1 10.67-87.74.63a9.63 9.63 0 0 1-3.74-2.53c-.96-1.08-1.98-2.58-2.06-3.95-.38-6.04-1.86-11.98-2.32-18.1l-1.5-20.3c-.64-7.86-1.72-16.03-2.38-24.2-.04-.45-.08-.9-.09-1.35-.16-2.05-.28-4.08-.37-6.14l-.05-1.43c-.12-4.12-.04-8.2.34-12.2.2-2.04.95-3.4 2.58-4.53 4.38-3 9.33-4.37 14.5-5.13 14.7-2.26 29.53-3.84 44.42-3.8 14.05.04 30.13.59 43.26 6 .84.34 1.68.67 2.5 1.09 1.93 1 2.96 2.56 2.75 4.84-.08.9-.05 1.83-.1 2.75-.11 3.08-.2 6.18-.32 9.27l-.06 1.62c-.07 2.63-.17 5.3-.26 7.93l-.02.65-.04 1.4c-.71 20.2-1.64 40.68-4.15 60.58" fill="#E3C2AC" fill-rule="nonzero"/>
    <path d="M185.22 186.86c.2.53.18 1.1-.17 1.58-1 1.44-23.73 3.84-48.95 4.46-25.2.62-46.36-.6-49.84-2.4-5.67-2.92 7.2-5.23 9.38-5.73a196.43 196.43 0 0 1 36.15-5.22c4.1-.19 8.22.17 12.32.22 9.01.12 18 .56 26.9 1.98 4.18.7 8.24 2.08 12.32 3.28.79.24 1.6 1 1.9 1.83" fill="#A5483D" fill-rule="nonzero"/>
    <path d="M121.56 161.84c-.04-1.16.05-1.89-.1-2.56-1.14-4.92-2.48-9.81-3.43-14.77-1.05-5.53-5.68-7.85-10.26-10.13-6.23-3.12-11.94-7.35-17.61-11.38a65.16 65.16 0 0 1-15.88-15.73 165.5 165.5 0 0 1-18.84-35.61c-1.1-2.86-1.88-5.83-2.74-8.76a16.94 16.94 0 0 1-.2-7.75c.52-2.74 2.8-3.82 5.15-2.33a14 14 0 0 1 3.96 3.7c3.05 4.54 7.22 7.86 11.31 11.28 2.23 1.86 4.37 3.82 6.52 5.75 2.05 1.85 4.2 3.6 6 5.64 5.94 6.8 12 13.5 17.48 20.65 4.52 5.93 8.94 12.01 12.3 18.77 3.2 6.47 5.9 13.1 7.2 20.26a55.2 55.2 0 0 0 3.24 10.9c.08-.54.23-1.07.23-1.6.12-6.43.23-12.88.33-19.3.04-2.91-.19-5.85.06-8.73.77-8.43-.98-16.48-3.52-24.39-2.9-9.04-6.05-17.98-9.04-27-3.36-10.07-5.7-20.34-5.78-31.03-.01-2.75-.31-5.51-.27-8.26.1-6.78 1.87-13.4 4.35-19.67 1.1-2.78 5.93-14.63 9.2-6.65.63 1.56 1.47 3.05 1.97 4.65 2.51 8.2 5.05 16.38 7.4 24.63 2.44 8.52 2.56 17.25 1.56 25.98-1.28 11.1-2.71 22.2-4.07 33.28-.1.76-.27 1.55-.14 2.28.68 4.05 1.45 8.11 2.22 12.45 1.41-.73 1.57-1.8 1.74-2.71.64-3.8 1.22-7.58 1.78-11.36 1.26-8.5 2.72-16.97 6.43-24.8 3.4-7.18 6.93-14.3 11.59-20.82 5.3-7.47 10.31-15.16 15.48-22.76 1.44-2.1 3.63-4.43 4.96-1.68 2.27 4.65 1.21 11.52.46 16.42a210.57 210.57 0 0 1-6.94 29.93c-1.55 4.8-3.34 9.54-5.34 14.18-1.56 3.72-4.5 6.52-7.1 9.5-3.24 3.7-7.16 6.64-10.7 10.01-1.65 1.59-3.2 3.28-4.87 4.84-2.13 2-2.96 4.52-3.47 7.31-1.27 6.95-1.46 14.01-1.8 21.06-.2 3.96-.72 7.91-.89 11.9-.33 7.79-.56 15.6-.72 23.41-.1 4.9.05 9.8 0 14.7 0 .85-.26 1.93-.83 2.46-.55.55-1.63.74-2.47.73-1.02-.02-1.69-.86-1.8-1.82-.3-2.57-.48-5.18-.66-7.75-.3-4.26-1.9-7.97-4.24-11.5-3.66-5.51-9.95-8.01-15.84-10.38-12.77-5.1-26.57-4.7-39.7-1.27-8.26 2.17-16.62 3.98-24.56 7.22a16.16 16.16 0 0 1-9.45.9c-1.8-.37-3.72-.8-4.46-2.75-.8-2.12.12-3.93 1.62-5.38 2.74-2.68 5.31-5.6 8.35-7.84a48.8 48.8 0 0 1 30.8-9.82c3.87.1 7.54 1.15 11.09 2.54 3.68 1.45 7.27 3.14 10.9 4.74 4.83 2.13 9.62 4.38 14.52 6.39 5.27 2.18 10.38 4.64 14.86 8.22.7.54 1.5.91 2.66 1.61m31.8-20.38c1.33-.77 2.15-1.06 2.75-1.59 9.1-7.89 19.84-12.35 31.34-15.28 5.92-1.5 12.65.81 16.75 5.25a39 39 0 0 1 6.92 11.12c2.2 5.2 3 11.4 3.68 17 .38 3.2.42 6.43-.82 9.53-.73 1.86-2 2.18-3.5.79-3.47-3.19-6.77-6.25-9.8-9.87-7.65-9.14-17.94-16.37-30.33-15a32.62 32.62 0 0 0-16.43 6.36c-3.87 2.94-6.27 7.15-7.46 11.82-1.56 6.08-3.16 12.16-3.8 18.44a33.8 33.8 0 0 1-.9 4.5 9.74 9.74 0 0 1-.79 2.13c-.54 1.09-1.7 1.54-2.67 1.17a2.14 2.14 0 0 1-1.43-2.13c-.02-.6.11-1.22.23-1.81 1.38-7.22 2.6-14.46 4.23-21.63 1.02-4.46 2.59-8.8 3.98-13.17 1.75-5.54 3.62-11.04 5.34-16.6.45-1.43.74-2.98.74-4.5.07-13.76 5.7-25.18 14.55-35.24 5.24-5.96 10.6-11.81 15.81-17.81 7.65-8.78 14.22-18.36 20.49-28.16a43.98 43.98 0 0 1 4.93-6.58c3.47-3.69 5.99-3 7.43 1.87.84 2.84.82 5.75.49 8.67a57.85 57.85 0 0 1-7.34 22.53c-2.8 4.92-5.51 9.9-8.62 14.6-6.52 9.95-15.02 18.06-24.1 25.6-2.22 1.86-4.64 3.49-6.9 5.3-3.39 2.65-6.56 5.5-8.6 9.4-1.77 3.4-3.65 6.7-5.4 10.1-.39.75-.42 1.67-.77 3.19" fill="#7FADAA" fill-rule="nonzero"/>
    <path d="M162.43 50.22c2.38-4.76 4.85-10.2 4.92-15.61 0-.35-.5-.44-.6-.1-1.77 5.78-3.4 11.24-6.23 16.6-1.76 3.35-3.71 6.57-5.66 9.81.06-1.65-.12-3.33-.26-4.97-.17-1.8-.2-3.78-.84-5.46-.13-.38-.69-.38-.73.07-.15 2.02.36 4.16.54 6.17.16 1.83.17 3.68.5 5.47l-2 3.36c-.05-1.33-.3-2.72-.46-4.02-.25-2.18-.5-4.36-.77-6.54-.1-.71-1.25-.47-1.12.28.25 2.18.54 4.35.8 6.53.21 1.64.3 3.4.83 4.98a186.84 186.84 0 0 0-15.3 32.71c-.24.7.8 1 1.07.33a297.3 297.3 0 0 1 5.81-13.78c.95-.28 1.72-.9 2.62-1.38 1.2-.62 2.46-1.15 3.7-1.69 2.61-1.15 5.23-2.3 7.84-3.49.63-.29.13-1.21-.5-.94-2.86 1.23-5.71 2.5-8.55 3.81-1.3.58-3.18 1.2-4.44 2.24 3.03-6.57 6.36-13 10.08-19.25 3-5 6.14-9.93 8.75-15.13m-36.55 2.08c.75-1.62 1.54-3.22 2.2-4.86.24-.56-.69-1-.95-.45-.8 1.59-1.52 3.23-2.25 4.84-.36.8-.94 1.75-1.24 2.69-.45-2.53-.96-5.04-1.53-7.53-1.31-5.73-2.92-11.46-3.86-17.26-.91-5.73.73-11.81-.91-17.4-.13-.43-.68-.28-.63.13.58 5.59-.46 11.2.34 16.76.28 1.98.66 3.95 1.1 5.9-.7-1.01-1.53-1.94-2.26-2.88-1.04-1.3-2.04-2.65-3.13-3.9-.34-.42-1.14-.04-.93.5.5 1.34 1.97 2.62 2.86 3.73 1.14 1.4 2.22 3.04 3.65 4.15l.12.06c.8 3.25 1.64 6.46 2.4 9.7 1.35 5.84 2.56 11.7 3.03 17.68.49 6.14-.05 12.24.18 18.36.02.56.8.58.85.03.97-8.9.4-17.87-1.04-26.67 1.02-.81 1.46-2.46 2-3.59m-11.48 78.15c-3.25-5.9-6.96-11.7-11.55-16.63-4.81-5.17-10.5-9.42-15.56-14.33l-2.45-2.4c.6-1.18.48-2.73.57-4.05.12-1.53.51-3.34.2-4.86-.12-.6-1.15-.53-1.1.12.14 1.65-.15 3.4-.23 5.06-.04 1.02-.24 2.1-.07 3.08a475.09 475.09 0 0 1-12.86-13.65c.23-.68.25-1.48.34-2.21.29-1.92.59-3.82.93-5.7.12-.67-.9-1-1.01-.33a80.9 80.9 0 0 0-.8 4.96c-.1.69-.3 1.5-.37 2.26a46.86 46.86 0 0 1-5.29-7.13c-1.79-3-2.93-6.17-4.17-9.43-.21-.57-1.07-.19-.95.35 1.37 6.4 5.24 12.22 9.47 17.05 5 5.63 10.19 11.1 15.54 16.4 3.87 3.87 8.12 7.3 12.14 10.98-1.7-.15-3.46-.1-5.18-.24-2.1-.17-4.17-.6-6.26-.87-.58-.08-.6.74-.15.94 1.94.9 4.25 1.04 6.37 1.17 2.01.16 4.17.3 6.17-.12a64.3 64.3 0 0 1 4.22 4.24c-1.52-.26-3.22-.06-4.68-.07-2.24-.02-4.47-.08-6.7.02-.7.04-.76 1.06-.05 1.1 2.37.15 4.74.1 7.1.1 1.66 0 3.52.24 5.14-.22 3.97 4.59 7.15 9.7 10.28 14.91.36.6 1.28.12.95-.5M205.2 53.3c-4.55 13.35-12.68 24.63-22.4 34.67-3.24 3.34-6.6 6.53-10.04 9.66.67-1.17.53-2.9.8-4.19.46-2.07 1.19-4.07 1.9-6.06.2-.53-.67-.97-.94-.43a27.52 27.52 0 0 0-2.1 6.52c-.28 1.41-.96 3.3-.12 4.57-1.38 1.24-2.78 2.5-4.18 3.73-2.64 2.33-5.25 4.67-7.16 7.65-1.83 2.91-3.13 6.15-4.53 9.27-.13.3.33.49.5.25 2.04-3.04 3.25-6.53 5.32-9.56 1.96-2.85 4.62-5.1 7.22-7.35 1.25.7 3.68.07 4.99-.05 2.22-.22 5.22-.42 6.96-1.94.2-.19.07-.61-.21-.6-2.21.14-4.41 1.11-6.65 1.4-.9.1-2.66-.05-3.97.22 5.06-4.48 10.01-9.1 14.63-14.04 3.54-3.77 6.92-7.77 9.98-12 .87.4 1.92.09 2.87-.17 2.07-.61 4.08-1.4 6.1-2.08.69-.24.44-1.33-.26-1.1-1.7.59-3.4 1.18-5.12 1.76-.96.36-2.05.52-3.03.8 4.46-6.34 8.15-13.18 10.41-20.61.2-.62-.76-.94-.97-.32m4.3 103.62c-1.29-7.71-7.24-15.62-13.6-19.91a18.26 18.26 0 0 0-5.1-2.38c2.41-1.27 4.68-2.8 7.19-3.93.7-.32.13-1.36-.57-1.06-2.66 1.1-5.68 2.58-7.72 4.68a36.89 36.89 0 0 0-5.9-.92c-4.3-.41-9.9-.85-13.96.94-.14.05-.06.26.07.27 2.08.23 4.21-.14 6.3-.2 2.24-.09 4.5-.02 6.74.16 4.42.36 8.84 1.13 12.55 3.7 1.32.93 2.54 1.97 3.7 3.11-.15.1-.28.25-.26.45a66.3 66.3 0 0 0 1.03 10.32c.14.8 1.39.52 1.25-.3-.55-3.17-.84-6.36-1.15-9.57a34.26 34.26 0 0 1 3.63 4.59c2.18 3.27 3.4 6.8 4.81 10.42.23.6 1.1.2.99-.37m-130.28-9.59c-3.33-2.07-7.7-2.32-11.52-2.11a56.7 56.7 0 0 0-15.83 3.16c-.58-.46-1.52-.35-2.25-.44-1.83-.24-3.45-.82-5.17-1.41-.68-.23-1.16.8-.53 1.16a13.2 13.2 0 0 0 5.63 1.57 89.37 89.37 0 0 0-17.97 9.86c-.58.41-.1 1.38.53 1 7.06-4.34 14.36-8.66 22.3-11.19 3.16-1 6.55-1.66 9.87-2.06-.38.46-.7.97-1 1.34-.55.7-1.06 1.38-1.59 2.08-.56.78-1.26 2.23-2.05 2.75-.43.28-.37 1.1.24 1.07 1.37-.03 2.54-2.67 3.22-3.6.68-.94 1.4-1.84 2.1-2.77.32-.38.61-.68.78-1.04l.54-.05c4.33-.36 8.24.3 12.45 1.21.3.07.54-.34.25-.53" fill="#518F8B" fill-rule="nonzero"/>
    <path d="M188.9 202.27c-20.18 6.07-41.1 9.71-62.2 9.46a157.45 157.45 0 0 1-37.09-4.77c-3.55-.91-7.06-1.96-10.53-3.17l-.06-1.43a141.4 141.4 0 0 0 16.93 4.67c24.34 5.11 49.65 3.95 73.86-1.3 6.45-1.42 12.83-3.1 19.14-5.07l-.05 1.6" fill="#FFF" fill-rule="nonzero"/>
    <path d="M188.56 212.26a258.08 258.08 0 0 1-28.56 4.63 242.6 242.6 0 0 1-34.63 1.42 193.9 193.9 0 0 1-34.24-4.12c-3.89-.82-7.77-1.79-11.6-2.9l-.1-1.36c5.63 1.58 11.34 2.9 17.1 3.93 22.35 4.04 45.35 3.98 67.83 1.1 8.1-1.04 16.26-2.3 24.24-4.11 0 .47-.02.93-.04 1.4" fill="#FFF" fill-rule="nonzero"/>
    <path d="M504.2 133.8c0 1.32-.58 2.3-1.81 2.79-1.87.71-20 .43-54.4-.86L446.5 96c37.23.85 56.18 1.33 56.87 1.42.75.1 1.21.46 1.21 1.16 0 1.04.06 2.13-.27 3.1-.55 1.8-.66 3.69-.32 5.53.2 1.37.23 2.79.03 4.14-.13.9-.15 1.64.42 2.34.68.84.6 1.76.49 2.77-.17 1.36-.15 2.74-.17 4.13 0 .54.29 1.2.09 1.63-1.27 2.75-.54 5.62-.65 8.1v3.48z" fill="#DEF0F5" fill-rule="nonzero"/>
    <path d="M502.42 101.5a976.1 976.1 0 0 1-36.7 0c-4.06-.07-8.18-.34-12.24-.22-.65.02-.63.85 0 .9 4.05.38 8.18.32 12.23.4 12.23.23 24.47.23 36.7 0 .78-.02.78-1.1.01-1.09m-1.96 5.77c-4.07-.05-8.18.4-12.25.52-3.96.1-7.94.13-11.89.1-3.94-.06-7.89-.19-11.84-.38-1.98-.1-3.96-.22-5.95-.31-1.77-.1-3.56-.31-5.32-.01-.3.04-.25.43 0 .5 1.72.5 3.55.46 5.32.56l5.95.33c8.16.43 16.33.52 24.5.28 3.83-.11 7.82-.1 11.63-.63.62-.08.45-.96-.15-.96m1.98 5.16c-7.97-.28-16.01.05-23.98.06-3.93 0-7.87 0-11.8-.02l-6.1-.01c-1.8 0-3.65-.13-5.38.3a.22.22 0 0 0 0 .43c1.72.47 3.59.35 5.39.37l6.09.03 11.8.02c7.96 0 16.02.28 23.98-.12.74-.04.75-1.03 0-1.06m-.02 7.14c-7.87-.12-15.75-.11-23.61-.14-3.88-.02-7.75-.03-11.63-.03h-5.99l-3 .02c-.34 0-4-.35-3.02.63.73.74 2.42.36 3.39.37l6 .06c4.25.01 8.5.02 12.75.05 8.37.03 16.74.13 25.11.13.77 0 .77-1.08 0-1.1m-2 4.88c-7.83.1-15.65.13-23.48.12-7.8-.01-15.7-.42-23.49-.1-.6.03-.6.8 0 .85 7.76.57 15.7.32 23.5.33 7.82 0 15.64-.03 23.47-.12.77-.01.78-1.1 0-1.08m.08 5.79c-3.79-.37-7.56.4-11.34.6-3.97.18-7.98.06-11.96 0-4.04-.08-8.06-.2-12.09-.34-3.87-.12-7.97-.62-11.82-.22-.3.04-.43.48-.08.54 3.6.65 7.49.5 11.14.62 4.15.15 8.31.28 12.47.36 3.99.08 7.99.2 11.97.02 3.94-.17 7.77-.84 11.71-.64.68.05.65-.88 0-.94" fill="#BDCEDE" fill-rule="nonzero"/>
    <path d="M263.75 143.02c-.34-2.1-.8-4.2-1.02-6.32-.6-5.56-1.22-11.13-1.56-16.7-.33-5.3-.2-10.62.61-15.89.3-1.97.87-3.92 2.2-5.5.81-.96 1.7-1.4 3.06-1.44 5.77-.26 11.55-.73 17.31-1.1 3.9-.23 7.8-.5 11.7-.62 5.79-.15 11.57-.24 17.35-.27 3.75-.01 7.52.15 11.28.2 2.02.03 4.05.07 6.07.01 9-.33 17.98-.72 26.97-1.02 6.55-.22 13.12-.33 19.67-.5 8.02-.2 16.04-.48 24.06-.64 5.3-.08 10.6-.01 15.9-.05 4.26-.03 8.53.16 12.76-.29 5.7-.6 11.4-.83 17.11-.83 9.7-.03 19.4-.07 29.1-.06 5.64.02 11.3.08 16.93.18 2.58.04 5.17.15 7.73.36a9.2 9.2 0 0 1 3.02.8 4.3 4.3 0 0 1 1.64 1.53c.81 1.36.2 2.65-1.34 2.82-1.1.11-2.22.03-3.34.02-12.83-.15-25.66-1.04-38.5-.64a97.8 97.8 0 0 1-7.96-.18 4.89 4.89 0 0 0-3.14.88c-.96.64-1.53 1.45-1.4 2.68.01.12-.02.27-.02.42-.05 9.62-.05 19.24-.18 28.85-.03 2.35 1.13 3.57 2.98 4.35.76.31 1.63.48 2.44.5 6.28.2 12.56.49 18.84.45 8.51-.05 17.01-.38 25.52-.6.91-.02 1.82-.09 2.72-.04 1.28.07 2 .7 2.25 1.86.26 1-.19 2.05-1.09 2.56a4.9 4.9 0 0 1-2.36.7c-6.84.18-13.67.38-20.5.37-6.2-.03-12.41-.31-18.62-.5-2.72-.07-5.43-.08-8.13-.32-2.97-.25-5.85.16-8.74.63-.8.14-1.64-.01-2.47-.05-1.31-.08-2.63-.29-3.94-.25-4.74.25-9.47.68-14.2.82-7.32.2-14.65.17-21.96.3-4.75.11-9.49.5-14.23.56-4.39.05-8.77-.1-13.18-.2-4.46-.08-8.94-.04-13.38-.31-4.56-.27-9.06.12-13.58.48-7.87.61-15.73.94-23.62.7-5.09-.16-10.18.1-15.27.18-1.18.02-2.37.02-3.56.07l-15.86.8c-3.34.17-6.68.38-10.03.55-3.41.2-6.83.26-10.23.62-1.93.2-3.66-.27-5.8-.93" fill="#203954" fill-rule="nonzero"/>
    <path d="M423.88 111.56l-.23-2.97c-.06-.54-.14-1.16-.62-1.46-.4-.23-.91-.13-1.28.12a2.8 2.8 0 0 0-.82 1.04c-1.1 1.95-1.7 4.18-3.07 5.96-.13.18-.3.34-.5.44-.38.17-.85-.03-1.13-.33-.27-.32-.4-.72-.54-1.12a23.6 23.6 0 0 0-2.3-4.89c-.2-.38-.47-.71-.8-.98-.34-.24-.83-.36-1.22-.17-.5.23-.66.85-.77 1.38-.5 2.7-1.01 5.38-1.22 8.1-.15 2.02-.13 4.05-.22 6.1a66.3 66.3 0 0 1-.15 2.82c-.02.29-.1 2.02.77 1.16.22-.21.24-.54.26-.85.27-5.63.17-11.31 1.46-16.83.07-.25.18-.57.46-.6 1.65 2.14 2.34 4.83 3.82 7.08.25.39.56.77 1.01.88.62.12 1.16-.36 1.55-.82 1.6-1.95 2.2-4.47 3.53-6.6.12-.2.38-.43.56-.27.08.07.1.19.1.3l1.32 16.63c.01.25.03.51.18.72.13.22.4.36.65.28.32-.13.33-.55.32-.89l-1.12-14.23m-30.76-4.03c-.15-.46-.36-.8-.64-.23a3 3 0 0 0-.2 1.03c-.37 5.36-.75 10.72-1.1 16.08-2.08-4.38-3.22-9.25-4.55-13.99-.2-.7-.4-1.38-.66-2.05-.1-.27-.23-.56-.42-.76-.2-.2-.48-.32-.74-.23-.38.14-.51.65-.6 1.11-.55 3.2-.62 6.45-.75 9.67-.07 1.64-.15 3.28-.3 4.92-.07.74-.13 1.48-.27 2.22-.08.4-.38 1.11-.13 1.49.25.4.88.15 1.1-.16.25-.38.27-.88.28-1.36.2-5.02.48-10.02.8-15.03.03-.32.05-.69.27-.93 1.1 5.66 3.1 11.02 5.11 16.34.11.29.23.6.42.83.2.23.5.4.77.31 1.15-.33 1-3.72 1.07-4.67l.65-10.98c.04-.87.14-1.72.1-2.6-.03-.17-.1-.63-.21-1.01m-34.41 9.96c-.14 0-.3 0-.45-.03-.13-2.78.03-5.62-.24-8.37.09-.14.15-.28.19-.44.4-.3.82-.52 1.24-.6.2-.03.4-.04.58-.1 2.04-.1 4.04 1.82 4.19 4.13.2 3.1-2.9 4.87-5.5 5.41m8.09 9l-.02-.03a114.67 114.67 0 0 0-7.33-8.1c1.82-.6 4.08-1.49 5-3.4a5.6 5.6 0 0 0 .69-3.63 5.53 5.53 0 0 0-1.75-3.18 4.62 4.62 0 0 0-3.93-1.06c-.44.01-.9.17-1.21.34-.63.32-1.1.92-1.06 1.66l-.04.23c-.34 2.63-.06 5.3.15 7.96.24 2.82.37 5.64.4 8.47.01.6.01 1.21.11 1.82.03.14.05.28.15.37.16.13.41.03.52-.14.11-.18.13-.39.14-.6.06-1.92.01-3.81-.14-5.71-.05-.79-.12-1.63.24-2.32 1.5.91 2.58 2.4 3.68 3.8a56.96 56.96 0 0 0 3.5 3.93c.15.14.34.32.56.37.22.05.5-.06.53-.3.02-.18-.08-.33-.19-.47m4.24-8.48a89.3 89.3 0 0 1 .01-4.33c.06-1.88.27-3.23 1.36-4.4a2.64 2.64 0 0 1 2.21-.2c1.3.42 1.62 1.5 1.88 2.8.39 1.98.64 4.02.65 6.03.02 1.9-.24 3.78-.58 5.62a5.36 5.36 0 0 1-1.65 3.01c-3.74 1.44-3.84-6.15-3.88-8.53m6.92-1.89c-.02-.6-.07-1.17-.15-1.78-.21-1.6-.28-3.6-1.16-4.9-.53-1.24-1.51-1.46-2.59-1.45-1.15.01-2 .04-2.78 1.03-1.88 2.37-1.2 9.27-1.05 11.16.14 2.07.3 4.72 1.57 6.39a3.9 3.9 0 0 0 2.6 1.4c1.85.25 2.73-3.35 2.95-4.76.16-1.06.3-2.06.43-3.05.18-1.35.25-2.7.18-4.04m22.09-5.16l.05-.22c.18-.63.37-1.28.73-1.83 1.2-1.78 2.86-.5 3.56 1.03.96 2.08.76 4.55.65 6.86-.1 2.55-.1 5.22-1.3 7.4a3.7 3.7 0 0 1-.98 1.22c-.43.33-.96.48-1.46.4-.7-.18-1.22-.87-1.55-1.56-.52-1.17-.7-2.5-.78-3.8-.17-3.21.3-6.42 1.08-9.5m5.04-1.58c-.59-1.16-1.5-2.19-2.66-2.26-.43-.21-.81-.16-1.2.15-1.08.5-1.68 2.26-2.05 3.35-.7 2.2-.9 4.66-1.12 6.95-.24 2.2.08 7.38 2.28 8.9.5.5 1.08.63 1.71.42h.16c1.51-.27 2.45-2.36 2.95-3.72.82-2.26.66-4.87.76-7.24.1-2.3.24-4.46-.83-6.55m-65.86 9.84a7.16 7.16 0 0 0-2-2.08c-.94-.63-2.06-1.05-2.64-2.08-.73-1.26-.26-3.08.8-4a4.14 4.14 0 0 1 3.87-.73c.22.06.43.12.65.08.22-.04.43-.22.43-.45.01-.33-.29-.5-.55-.62a4.92 4.92 0 0 0-3.97.14 4.79 4.79 0 0 0-2.49 3.38c-.3 1.48.2 3 1.3 4.04.68.6 1.56.89 2.3 1.4 1.35.88 2.22 2.45 2.68 4.11.3 1.1.4 2.28.18 3.4a4.02 4.02 0 0 1-1.78 2.7 2.9 2.9 0 0 1-3.78-.95c-.19-.29-.51-.66-.78-.43-.16.12-.16.37-.12.58.3 1.46 1.88 2.18 3.09 2.27.98.07 1.99-.26 2.73-.98.98-.92 1.42-2.37 1.54-3.79.18-2.1-.34-4.2-1.46-5.99m15.22-10.81a.64.64 0 0 0-.25-.26c-.18-.09-.37-.1-.56-.11-.95-.06-1.92-.07-2.87-.02-.84.06-1.73.32-2.57.26-.5-.03-1-.17-1.53-.2-.87-.02-1.72 0-2.58.05-.24.01-.54.09-.6.35-.06.31.33.5.63.55 1.25.2 2.5.25 3.76.22.1-.01.19-.01.27.04.15.1.16.33.15.5-.12 5.8-.1 11.6.17 17.38 0 .2 0 .42.1.59.1.17.32.3.48.2.18-.11.22-.37.2-.6l-.17-17.1c0-.32 0-.64.18-.9.23-.3.67-.32 1.03-.3l3.32.1c.36.01.84-.1.9-.48 0-.1-.02-.17-.06-.27m82.84-1.33c-.14-.12-.35-.11-.52-.02a1.4 1.4 0 0 0-.47.63 51.9 51.9 0 0 1-3.26 5.43l-3.3-5.28c-.16-.25-.33-.5-.58-.62-.26-.09-.61.07-.62.37 0 .12.03.24.08.33.36.8.84 1.47 1.3 2.2.67 1.07 1.27 2.2 1.8 3.36a8.9 8.9 0 0 1 .63 3.5l.04 2.2.08 4.5c.01.96.04 1.9.2 2.8.05.22.13.46.32.5.27.07.43-.3.48-.61.38-2.1.14-3.14.23-6.4.04-1.78-.57-3.58-.09-5.27.35-1.18 1.08-2.14 1.73-3.15.76-1.16 1.42-2.4 1.98-3.7.08-.2.18-.44.08-.63a.32.32 0 0 0-.1-.14" fill="#DEF0F5" fill-rule="nonzero"/>
    <path d="M284.28 97.65c-.72-.42-1.01-1.52-1.24-2.27-.35-1.2-.55-2.43-.8-3.66-.6-2.69-1-5.41-1.2-8.16a32.8 32.8 0 0 1 .65-8.42c.58-2.8 1.63-5.44 2.66-8.08.57-1.48 1.68-2.15 3.35-2.32 31.39-3.3 63-3.8 94.55-4.65 31.32-.85 62.63-1.23 93.91-1.05 1.88.02 3.76.02 5.64.06 3.75.05 7.5.53 11.26.56 1.89.02 3.73.03 5.54.56.27.06.54.1.8.2.87.36 1.65.83 1.6 1.92-.06 1.03-.52 2-1.54 2.23-1.32.31-2.74.31-4.1.38-.56.01-1.11-.22-1.65-.23-9.56-.18-19.13-.34-28.68-.46-1.1 0-2.2.31-3.31.4-2.3.16-3.67 1.41-4.5 3.44a24.62 24.62 0 0 0-1.63 13.3c.2 1.14.07 2.32.18 3.49.22 3.03 1.63 4.56 4.7 5.09.9.15 1.79.28 2.7.3 6 .05 12 0 18.02.12 3.05.07 6.1.44 9.16.62 1.04.08 2.1.1 3.14.1 1.54.02 3.07 0 4.61.02 1.27.03 1.94.53 1.91 1.37-.03.81-.72 1.33-1.93 1.37-4.04.14-8.08.31-12.12.38-1.74.02-3.48-.28-5.2-.28-8.94-.06-20.52 1.1-29.44 1.13-31.48.09-60.35.39-91.8 1.66-23.62.97-73.88 1.68-75.24.88" fill="#A5483D" fill-rule="nonzero"/>
    <path d="M441.95 78.81c0-5.31.6-9.6 1.95-13.76.57-1.8 1.15-2.2 2.83-2.01 1.07.1 1.42.41 1.3 1.56-.2 1.68-.57 3.34-.87 5.01a43.9 43.9 0 0 0-.36 13.63c.24 1.94.58 3.88.97 5.81.2.97-.15 1.44-.9 1.71-1.83.63-2.9.03-3.48-2a36.5 36.5 0 0 1-1.44-9.95M289.22 66.92c.01.3-.03.63-.1.9a88.62 88.62 0 0 0-1.85 9.67c-.63 5.4-.23 10.88.37 16.28.06.5.1 1.04-.07 1.52-.72 1.98-1.73-.72-1.86-1.53a50.97 50.97 0 0 1-.56-4.72c-.24-2.8-.45-5.62-.34-8.43.16-4.4 1.15-8.7 2.3-12.93.12-.48.26-.98.59-1.33.3-.34.85-.49 1.2-.2.23.2.3.47.32.77" fill="#FFD186" fill-rule="nonzero"/>
    <path d="M469 170.59c.04 3.67-.6 7.35-.99 11.02-.05.6-.34 1.17-.6 2-6.37.17-12.67.29-18.94.55-5.53.22-11.04.69-16.55.86-3.89.12-7.79.15-11.67.17l-6.35.04c-5.47.06-10.91.14-16.37.15-2.65.03-5.32-.03-7.97-.01-2.24.02-4.48.2-6.7.19-2.04-.02-4.05-.26-6.07-.27-2.58-.03-5.18.12-7.76.12l-17.81-.12c-1.2-.02-2.39.08-3.57.08-2.86-.02-5.72-.06-8.58-.1-.92 0-1.83-.09-2.73-.02-3.71.27-7.4.12-11.1-.27-1.59-.17-3.2.12-4.82.16-4.47.13-8.94.27-13.4.34-5.82.09-11.62.09-17.41.17-1.19.01-2.36.28-3.55.32-6.35.3-12.69 1.06-19.06.8-2.15-.09-4.31.4-6.47.6-5.92.55-11.85 1.1-17.76 1.6-.9.08-1.84 0-2.7-.19-.74-.16-1.53-.53-1.48-1.52.05-.89.62-1.42 1.46-1.57 1.94-.34 3.86-.7 5.79-.91 4.22-.51 8.47-.94 12.7-1.4-.35-11.84-.67-23.51-1-35.41-.95.04-2.05.1-3.13.13l-13.41.4c-.21 0-.42-.01-.63-.04-1.6-.12-2.28-.58-2.36-1.58-.1-1.14.75-2 2.37-2.16 5.09-.46 10.16-.99 15.26-1.27 7.61-.43 15.23-.57 22.85-.99 20.22-1.07 40.49-1.1 60.71-1.6 18.82-.45 37.6-.2 56.4-.45 4.49-.05 8.98-.48 14.01-.7 2.94-.1 5.87-.05 8.82-.05l2.71-.02c3.09-.04 6.16-.06 9.23-.11 1.17-.03 2.33-.08 3.49-.12 1-.05 2-.08 3.02-.1 2.45-.05 4.9.11 7.33-.07 6.58-.51 13.14-.04 19.7.25 1.8.08 3.38 1.3 3.92 3.03.2.66.32 1.39.35 2.08.15 4.2.32 8.38.48 12.56.15 4.48.3 8.96.34 13.44" fill="#216475" fill-rule="nonzero"/>
    <path d="M406.83 170.95c-.42 0-.89.12-1.26-.02-.9-.36-1.77-.86-2.68-1.26-.43-.19-1.08-.57-1.36-.38-1.49.93-2.68-.18-3.97-.46-1.37-.32-2.63-1.45-4.2-.63-.18.1-.54-.09-.8-.17-6.05-1.96-12.18-1.5-18.29-.54-3.2.5-6.4.84-9.61.73a13.8 13.8 0 0 1-6.97-2.16c-2.6-1.64-4.2-5.93-3.54-8.8.83-3.63 4.94-6.15 7.52-6.26a6.15 6.15 0 0 1 5.85 4.06c.16.5.28 1.07.07 1.57-.1.27-.5.77-.8.78-.56.01-.56-.7-.61-1.14-.32-2.71-2.96-3.5-5.2-2.7-2.37.84-4.52 2.66-4.85 5.33-.3 2.38 1.03 4.55 2.92 5.82 1.57 1.07 3.35 1.38 5.2 1.46 4.3.2 8.53-.3 12.73-1.2 9.83-2.1 19.2-.76 28.05 4.13.7.4 1.31.91 1.97 1.37a6.8 6.8 0 0 0-.17.47" fill="#FFD186" fill-rule="nonzero"/>
    <path d="M341.06 157.28v4.24c.63-.19 1.55 0 2.19 0h3c.06 0 .1 3.08.06 3.37-.09.43-.09.4-.5.43-.57.03-1.15 0-1.71 0l-3.31-.04c-.1 1.42-.16 2.52-.24 3.8-.03.35 3.21.35 3.52.35.77-.02 2.06-.3 2.72.25.44.37.33 1.22.27 1.75-.03.4.01 1.04-.27 1.36-.33.35-1.07.16-1.5.16-2.4.01-4.8-.08-7.22-.14-.88-.01-1.2-.54-1.2-1.51.05-5.4.03-10.8.08-16.2 0-1.65.38-2.07 1.8-2.09a157 157 0 0 1 6.7.06c1.35.05 1.65.44 1.67 1.73.03 1.41.04 2.05-1.3 2.18-1.4.13-3.17.11-4.76.3m-21.91 8.57c.44-.34 1.24-.35 1.75-.3 1.21.09.95 1.86.94 2.93 0 .73.01 1.48-.03 2.23-.03.88-.03 1.74-1 2.13-1.01.4-1.59.03-2.02-.98-.05-.11-.2-.17-.02-.03-1.78 0-3.3.11-4.8-.01-2.21-.21-3.71-1.68-3.8-4.17-.1-3.02-.02-6.1.28-9.13.48-4.88 5.68-6.68 9-4.77.7.4 1.21 1.45 1.66 2.32.38.72.4 1.63-.23 2.24-.71.69-1.68.52-2.13-.1-1.03-1.48-2.13-1.27-3.4-.76-1.37.55-2.08 1.73-2.32 3.3-.2 1.29-.38 2.65-.28 3.96.2 2.6 2.75 4.36 4.86 3.55.93-.35.86-1.33 1.3-2.14.06-.1.14-.2.24-.27m9.56 2.48c1.97.2 3.94.04 5.9.2 0 0 .08 0 .1.03.03.05.03.07.02.13-.05.92.27 2.55-.2 3.38-.42.73-1.6.57-2.25.62-1.78.06-3.54.2-5.3.3-.43.01-1.01.04-1.42-.1-.37-.12-.35-1.2-.35-1.56l.01-15.7c0-.3 0-.6.03-.87.13-1.54.36-1.77 1.64-1.76 1.27.01 1.6.26 1.63 1.76.07 3.63.04 7.28.06 10.9.01.84.09 1.7.13 2.67" fill="#E3C2AC" fill-rule="nonzero"/>
    <path d="M470 168.97c.04 3.52-.61 7.06-1 10.58-.05.58-.34 1.13-.6 1.92-6.4.17-12.75.28-19.06.54-5.57.2-11.1.66-16.65.82-3.91.12-7.83.14-11.75.17a53.3 53.3 0 0 0 2.35-4.58c-.89.07-1.54.08-2.19.16-2.98.33-5.98.96-8.97 1-3.67.04-7.41-.64-10.8-2.06-3.63-1.53-6.37-3.92-9.18-6.55-1.22-1.15-2.23-3.9-2.23-3.9s3.69-.47 5.5-.53c1.95-.07 3.94-.07 5.85-.45a6.1 6.1 0 0 0 4.64-3.44c-1.98.6-3.8 1.17-5.65 1.64-.73.19-1.52.19-2.3.14-3.64-.2-7.27-.45-10.9-.68-.28-.03-.55-.1-.84-.16-.54-1.81.02-3.43.59-5.04 1.7-4.89 5.07-8.57 9.29-11.6 3.74-2.72 7.8-4.9 12.02-6.77.52-.23 1.05-.51 1.58-.86l.55-.02c2.95-.1 5.9-.06 8.86-.06l2.74-.02c3.1-.04 6.19-.05 9.28-.1 1.18-.03 2.34-.08 3.51-.12-1.76 2.4-3.6 5.05-4.6 6.44a22.47 22.47 0 0 0-3.09 6.11c-.1.4-.42.95-.34 1.37.15.85 1.12.09 1.57-.1 1.95-.84 4-1.42 6.09-1.85a71.7 71.7 0 0 1 8.3-1.05l.44-.04c2.02-.11 4.1.2 6.13.49.53.08 1.06.13 1.58.2 4.46.59 8.86 1.57 13.14 2.94 1.66.51 3.22 1.34 4.76 2.13.16.08.41.18.73.3l.3.11c.16 4.31.3 8.6.35 12.92" fill="#8DC7D6" fill-rule="nonzero"/>
    <path d="M409.9 146c-4.08-.04-7.8 3.2-7.9 6.86-.09 3.68 3.69 7.28 7.8 7.14 4.92-.18 7.82-2.28 8.18-6.63.3-3.73-3.85-7.33-8.08-7.37" fill="#FFF" fill-rule="nonzero"/>
    <path d="M441.96 151c-.26 1.4-.5 3.08-.77 4.06-.89 3.37-1.75 6.75-2.69 10.09-.19.75-.28 1.81-1.23 1.85-1.12.04-1.32-1.1-1.63-1.98-.14-.38-.18-.8-.24-1.2-.44-3.5-.9-7.93-1.36-11.72 2.47-.56 5-.83 7.51-1.06l.41-.04m16.14 1.65c-.19.57-.37 1.1-.44 1.38-.13.48-.32.93-.48 1.4-.73 2.31-1.45 4.62-2.2 6.93-.4 1.13-.8 2.28-1.26 3.38-.26.64-.63 1.49-1.36 1.2a2.47 2.47 0 0 1-1.12-1.51 48.63 48.63 0 0 1-1.02-6.16c-.2-2.39-.23-5.5-.31-8.27l1.43.22c2.28.31 4.53.8 6.75 1.43m12.18 4.85l-.06.18a21.8 21.8 0 0 1-4.26 8.57c-.43.52-1 1-1.62.6-.36-.25-.62-.96-.6-1.44.2-3.08.55-7 .84-10.41l.73.24c1.5.48 2.92 1.25 4.31 1.99l.66.27" fill="#57A7BD" fill-rule="nonzero"/>
    <path d="M410.84 152.94c-.16-.11-.35-.2-.54-.23-.5-.1-1.08.06-1.43.45-.69.8-.1 2.04.91 2.15.43.05.88-.13 1.2-.42.25-.23.43-.55.44-.89.04-.42-.22-.81-.58-1.06" fill="#010101" fill-rule="nonzero"/>
    <path fill="#144683" fill-rule="nonzero" d="M306 182h175.06v37.7H306z"/>
    <path d="M477.72 187.07a1.27 1.27 0 0 0-.23-.12c-.75-.3-5.48-.06-6.77-.05-3.77 0-7.53.05-11.3.05H440.9c-24.67.02-49.35.12-74.02.29-12.35.07-24.68.16-37.03.27l-14.24.15c-15.7.15-31.38.3-47.04.62-.76.02-.76.92 0 .92 55.33-.44 110.66-1.12 166-1.22h36.95c1.91 0 6.2-.16 6.34-.26.27-.23.1-.47-.14-.65m0 17a1.27 1.27 0 0 0-.23-.12c-.75-.3-5.48-.06-6.77-.05-3.77 0-7.53.05-11.3.05H440.9c-24.67.02-49.35.12-74.02.29-12.35.07-24.68.15-37.03.27l-14.24.15c-15.7.15-31.38.3-47.04.62-.76.01-.76.92 0 .92 55.33-.44 110.66-1.12 166-1.22 12.33-.02 24.65-.02 36.95-.01 1.91 0 6.2-.15 6.34-.27.27-.21.1-.45-.14-.63" fill="#FFF" fill-rule="nonzero"/>
    <path d="M312.93 107.04c-.02 1.96-.27 2.23-2.07 2.23-3.42-.01-6.84-.1-10.26-.15v-.02c-1.42-.01-2.82-.05-4.24-.07-.41-.01-.8-.01-1.19-.03h-2.95c-7.38.06-14.74.28-22.12.19-3.13-.05-26.53.81-38.9.87-4.44.01-17.5.01-21.95.2l-.54.01-1.37.03c-.66.01-1.33.03-1.98.06h-.3l-1.4.1c-2.23.16-4.48.35-6.72.44-2.15.1-4.3.13-6.44.06-2-.08-2.48-.69-2.9-2.79-.86-4.25-.87-8.44.47-12.56.77-2.44.84-2.47 3.25-2.55l11.4-.4c.52-.01 1.02-.04 1.52-.07 1.13-.04 2.23-.08 3.36-.15l1.46-.09c14.5-.83 61.45-1.2 86.14-1.3.6 0 1.18 0 1.75-.02 6.4-.03 11.08-.03 12.92-.03 2.26.01 2.78.56 3.08 2.97.05.37.05.75.05 1.12-.04 4.47.01 7.49-.07 11.95" fill="#010101" fill-rule="nonzero"/>
    <path d="M296.58 109l-1.08-.03.82-2.4c-.04-.13-.07-.29-.15-.35-2-1.3-2-1.28-.55-3.17.15-.19.25-.45.43-.77l-1.08-1.36c-.8-1-.8-1.2.02-2.18.33-.4.65-.78 1.07-1.25-.46-.57-.9-1.03-1.22-1.58-.2-.35-.44-.96-.28-1.26.2-.42.54-1.04.97-1.64l1.59-.01c-.54.75-1.12 1.48-1.18 2.14.46.7 1.63 1.9 1.68 2.57.05.68-1.15 1.35-1.74 2.04.5.84 1.32 1.64 1.4 2.5.05.74-.73 1.55-1.15 2.34 1.61 1.32 1.93 3.02.45 4.41m-87.93-11.16a.76.76 0 0 1-.19.38l-.74 1.03c-.14.18-.27.36-.3.58 0 .18.06.36.12.54.3.79.84 1.53.78 2.4-.06.9-.75 1.55-1.26 2.21a.72.72 0 0 0-.16.36c-.01.12.04.26.1.37.34.65.9 1.2.98 1.93.06.47-.08.93-.32 1.33l-1.25.03c.01-.45 0-.92-.13-1.4-.33-1.17-1.5-1.81-.63-3 .5-.7 1.02-1.35 1.5-2.05.09-.11-1.47-1.83-1.58-2.02-.7-1.12.73-1.82 1.37-2.55.07-.09.14-.17.15-.29.03-.12-.05-.26-.13-.37-.42-.68-.84-1.35-1.27-2.01a1.25 1.25 0 0 1-.15-.36c0-.16.08-.3.14-.42.28-.5.6-1.03.97-1.45l1.33-.08c-.04.15-.07.29-.13.41-.2.4-.47.72-.54 1.16a1.2 1.2 0 0 0-.01.5c.06.38.24.73.43 1.02.3.44.65.83.85 1.31.06.14.1.3.07.44m-4.17 11.07l-.27.01-1.28.08c.13-.97-.25-1.8-.99-2.5-.7-.69-.43-1.5.04-2.22.4-.64.89-1.23 1.32-1.84-.16-.29-.24-.54-.38-.64-2.03-1.55-1.8-2.2-.08-4.08.18-.2.33-.46.46-.66-.3-1.42-2.56-1.92-1.25-3.96l.01-.02 1.4-.08c-.16.44-.3.88-.47 1.32.12.18.2.38.32.55 1.63 2.06 1.63 2.06-.05 4.25-.12.16-.21.36-.32.54.05.15.05.34.13.43 1.84 2.23 1.85 2.23-.12 5.33.42.64.94 1.3 1.3 2.07.26.55.33 1.03.23 1.42" fill="#DF5632" fill-rule="nonzero"/>
    <path d="M338.78 111.66c.08 1.69.17 2.95.2 4.2a8.74 8.74 0 0 1-.8 4.41c-.97 2.14-.32 4.5-.43 6.74-.09 2.27-.54 4.5-.69 6.76-.18 2.36.1 4.68-.02 7.05-.03.48-.16 2.03-.18 2.5-.1 2.26-.9 1.85-3.2 2.05-2.04.2-4.1.42-6.16.57-2.56.2-5.1-.14-7.52-.94a7.36 7.36 0 0 1-2.82-1.64c-4.25-4.22-6.54-9.3-6.1-15.3.12-1.9.76-3.78 1.4-5.56 1.05-2.89 2.18-5.75 3.96-8.3 2.5-3.58 6.08-4.96 10.28-5.18 3.2-.15 6.31.44 9.38 1.28 1.08.29 2.02 1 2.7 1.36" fill="#DEF0F5" fill-rule="nonzero"/>
    <path d="M337.75 139.73c-2.45-.5-5.25-.22-7.76-.23-2.54-.01-5.27-.25-7.77.18-.28.05-.3.46-.01.5 2.5.47 5.21.26 7.75.28 2.52.01 5.3.32 7.78-.13.33-.07.36-.53.01-.6m-.22-4.07c-2.97-.05-5.97-.09-8.96-.11-2.72-.03-5.59-.25-8.28.1-.37.04-.4.6-.02.67 2.68.37 5.55.18 8.27.19l8.98.01c.62 0 .65-.85.01-.86m-1.94-4.93c-3.01-.1-6.03-.1-9.04-.13-2.68-.03-5.77-.43-8.37.15-.23.05-.25.36-.01.42 2.6.65 5.68.3 8.35.3 3.02.04 6.03.1 9.06.04a.4.4 0 0 0 .01-.78m2.17-3.7c-1.5-.42-3.08-.25-4.65-.22-1.72.05-3.45.04-5.19 0-1.74-.05-3.47-.12-5.2-.19-.71-.02-4.31-.55-4.72.05v-.06c.01.45 1.34.53 1.7.59.87.12 1.74.2 2.62.25 1.72.1 3.46.08 5.16.13 3.4.1 6.78-.06 10.16.04.41 0 .5-.47.12-.6m-2.15-5.17c-2.92-.48-6.06-.39-9.02-.42-2.74-.04-5.67-.2-8.36.3-.35.07-.28.5.05.54 2.82.32 5.8.05 8.65.08 2.87.04 5.78.36 8.64.25.56 0 .57-.67.04-.75m2.18-5.06c-.1-.06-.23-.07-.34-.1-1.2-.19-2.41-.22-3.63-.22-1.52-.02-3.04 0-4.57.02l-3.76.05-1.84.02c-.37 0-1.25-.13-1.56.09-.4.32.66.54.81.56a9 9 0 0 0 1.55.13l7.37.17c1.88.04 3.8.07 5.68-.1.2-.02.43-.08.49-.26.04-.1-.04-.26-.16-.34 0 0-.03 0-.04-.02" fill="#BDCEDE" fill-rule="nonzero"/>
    <path d="M172.95 111.72c.16-.2.37-.34.66-.44 1.08-.36 2.36-.3 3.48-.36 44.07-2.31 99.99-3.47 150.09-2.66 3.8.06 7.4 1.39 11.16 1.64.68.05 1.45.22 1.98.6.4.32.75 1.07.67 1.57-.1.45-.71.96-1.21 1.17-.48.2-1.11.1-1.66.1-4.49-.2-8.95-.28-13.42-.57-1.71-.1-2.77.55-3.65 1.86-5.99 8.9-5.9 18.1-1.4 27.54.66 1.38 1.63 2.04 3.26 2.1 4.67.19 9.35.49 14.03.79.89.04 1.95-.1 2 1.24.05.9-.68 1.56-1.98 1.75-1.18.17-2.38.26-3.56.25-6.37-.1-12.73-.26-19.1-.37-49.27-.79-91.74.06-137.58 1.05-.42 0-.85.03-1.27 0-1.69-.13-2.21-.59-2.38-2.27a90.09 90.09 0 0 1-.45-5.98c-.36-7.6-.96-15.18-.37-22.78.08-1.08.18-2.17.29-3.25.1-.98-.19-2.25.4-2.98" fill="#216475" fill-rule="nonzero"/>
    <path d="M222.58 126.55c-.56-.1-1.12-.06-1.69-.08l-4.52-.11c-.66-1.43-1.18-2.58-1.68-3.74-2.01-4.68-7.21-6.2-11.12-5.43-4.76.92-9 2.93-13 5.6-1.82 1.22-3.73 2.3-5.57 3.5-.48.34-.92.72-1.37 1.1-.32.28-.81.5-.56 1 .26.5.8.81 1.2 1.18.61.57 1.26 1.13 1.9 1.7 1.28 1.1 2.6 2.18 3.99 3.15a28.53 28.53 0 0 0 7.41 3.81c2.9.94 5.77 1.91 8.93 1.75 5.24-.29 7.73-2.2 9.03-7.2.27-1.06.62-2.12.96-3.23.79.02 1.43.04 2.07.04l3.84.12c.95.02 1.45-.5 1.58-1.37.13-.92-.42-1.62-1.4-1.8m4.95-8.58c-.21 0-.42.05-.59.14-.6.34-.88 1.24-.86 2.78.03 1.5.12 3 .27 4.5 1.01-.13 2.08-.33 2.98-.73 1.11-.5 1.9-1.34 2.07-2.18.28-1.43-.99-2.82-1.56-3.35-.65-.63-1.56-1.16-2.31-1.16m-.97 9.42c.22 1.74.52 3.49.9 5.23l.16 1.03c.12.76.42 2.76.86 3.09.67.45 3.25.37 5.15 0 2.03-.41 3.65-1.61 4.13-3.06.45-1.35-.09-3.06-1.32-4.24-1.42-1.34-3.4-1.85-4.82-2.04a23.41 23.41 0 0 0-5.06-.01m3.96 11.62c-1.24 0-2.5-.16-3.28-.72-1.06-.74-1.4-2.42-1.67-4.36l-.15-.93A63.26 63.26 0 0 1 224 120.9c-.03-1.46.14-3.53 1.89-4.5 1.9-1.04 4.1.08 5.43 1.32 1.7 1.62 2.45 3.43 2.12 5.09-.2.97-.78 1.9-1.62 2.61l.1.02c1.71.23 4.17.87 6 2.6 1.8 1.7 2.51 4.14 1.82 6.2-.85 2.57-3.48 3.95-5.68 4.4-.29.06-1.88.35-3.54.35m11.3-2.24a.9.9 0 0 1-.9-.74l-1.62-9.72a.9.9 0 0 1 .74-1.04c.5 0 .95.26 1.03.74l1.63 9.7a.9.9 0 0 1-.73 1.05l-.15.01m4.06-11.47c-.27.32-.46.7-.55 1.1a9.34 9.34 0 0 0 1.12 7.6c.21.3.49.7.8.85.24.14.45.1.52.04.1-.08.2-.36.25-.83.25-1.87-.71-8.65-1.82-8.97a.85.85 0 0 0-.32.2m1.7 11.73c-.4 0-.81-.1-1.2-.3a4.43 4.43 0 0 1-1.55-1.53 11.64 11.64 0 0 1-1.4-9.4c.19-.6.5-1.45 1.16-2.06h.02c1.13-1 2.09-.73 2.56-.45 2.64 1.53 2.93 10.07 2.8 11.06-.08.7-.28 1.61-1 2.2-.37.31-.87.48-1.39.48m4.55 0c-.44 0-.82-.35-.88-.85l-2.27-19.04c-.07-.54.27-1.03.77-1.1l.12-.01c.44 0 .82.35.88.85l2.27 19.04c.07.54-.27 1.03-.77 1.1l-.12.01m6.39-11.11l-.09.21v.01c-.7 2.03-.77 4.26-.16 6.32.14.45.36 1.1.78 1.47.26.22.67.3.85.13.29-.23.25-1.08.24-1.4l-.12-3.26a6.92 6.92 0 0 0-.33-2.31c-.25-.58-.9-1.15-1.17-1.17zm1.1 10.11a2.8 2.8 0 0 1-1.76-.65 4.95 4.95 0 0 1-1.37-2.38 12.3 12.3 0 0 1 .19-7.47c.48-1.38 1.45-1.52 1.82-1.5 1.33 0 2.51 1.38 2.9 2.33.4.98.44 2.03.48 2.96l.11 3.27c.02.69.09 2.1-.93 2.92-.4.36-.92.52-1.44.52z" fill="#7FADAA" fill-rule="nonzero"/>
    <path d="M265.64 125.91h-.1c-.44.07-.9.44-1.14.98-.24.5-.34 1.15-.32 2.03.04 1.42.34 2.79.88 4.1.32.76.9 1.63 1.4 1.41.2-.04.45-.27.58-.59a21.5 21.5 0 0 0-.22-2.27l-.07-.6c-.2-1.53-.41-3.08-.3-4.66-.1-.22-.42-.4-.71-.4M263.15 142c-1.78 0-3.49-1.02-4.09-2.62a.97.97 0 0 1 .56-1.25.98.98 0 0 1 1.24.57c.45 1.18 2.12 1.66 3.22 1.2 1.23-.44 2.23-1.74 2.63-3.35l.05-.23-.1.03c-1.34.27-2.7-.76-3.46-2.59a13.47 13.47 0 0 1-1.03-4.8 6.6 6.6 0 0 1 .5-2.9 3.5 3.5 0 0 1 2.62-2.05c1.19-.1 2.32.49 2.78 1.48.12.14.18.3.2.49l.63 5.69c.09.74.2 1.6-.05 2.45.03.95-.05 1.93-.3 2.9-.54 2.24-1.97 4-3.8 4.68-.5.2-1.05.3-1.6.3m9.55-15.61c-.32.41-.44 1-.54 1.56-.19 1.22-.2 2.47-.05 3.7.07.65.2 1.37.59 1.88.3.41.82.62 1.12.52.4-.12.74-.65.94-1.44a8.2 8.2 0 0 0-.32-4.95c-.45-1.17-1-1.7-1.2-1.73.02.02-.2.03-.54.46m.94 9.61a3.3 3.3 0 0 1-2.56-1.3c-.57-.83-.9-1.8-.97-2.81-.16-1.43-.15-2.85.08-4.22.12-.8.32-1.7.9-2.45.91-1.16 1.83-1.25 2.43-1.21 1.52.22 2.4 1.95 2.8 2.96.75 1.97.89 4.14.38 6.13-.39 1.5-1.18 2.47-2.3 2.8-.24.07-.49.1-.76.1" fill="#7FADAA" fill-rule="nonzero"/>
    <path d="M279.26 141c-.83 0-1.67-.24-2.4-.7a4.11 4.11 0 0 1-1.84-2.55.97.97 0 0 1 .66-1.17c.46-.11.96.2 1.08.72.14.54.5 1.02 1.01 1.34a2.7 2.7 0 0 0 2.17.35 4.2 4.2 0 0 0 2.37-2.11c-.83.11-1.75-.1-2.52-.72a6.85 6.85 0 0 1-1.68-2.35 18 18 0 0 1-1.55-9.98c.07-.5.48-.94 1.02-.8.5.07.84.56.77 1.09-.4 3 .08 6.13 1.37 8.82.26.57.63 1.26 1.15 1.68.37.28.91.49 1.33.3.35-.15.65-.58.8-1.12.15-.58.12-1.24.1-1.96l-.1-2.5c-.16-1.64-.33-3.34-.15-5.04a.93.93 0 0 1 .9-.85h.03c.47.03.86.42.87.92l.21 5.69c.18 1.97.28 4.09-.3 6.08-.68 2.35-2.26 4.14-4.14 4.7-.37.1-.76.16-1.16.16" fill="#7FADAA" fill-rule="nonzero"/>
    <path d="M197.07 138.77l.01-.12c.04-.11.12-.2.19-.29.74-1.01 1.37-2.12 2.05-3.18.78-1.54 1.79-2.71 2.36-4.37 0 0-2.67-.02-3.96.23-.67.12-2 .29-2 .29s-1.09 1.38-1.58 2.04c-.66.9-1.33 1.81-2.1 2.62-.1.1-.19.2-.3.22-.1.04-.26.03-.34-.06-.07-.08-.08-.18-.08-.28 0-.54.33-.92.68-1.28.9-.9 1.98-3.55 1.98-3.55s-9 .2-8.98-.92c.03-1.12 8.8-.26 8.8-.26s-3.22-3.22-2.63-3.8c.6-.6 1.6.6 2.3 1.57 1.75 2.35 2.07 2.31 2.07 2.31l5.9-.24s-.93-1.7-1.03-1.85l-1.07-1.7c-.37-.58-.76-1.14-1.15-1.72-.16-.23-1.04-1.38-.74-1.6.14-.11.36-.11.52-.04.18.07.45.16.57.33 1.1 1.59 2.2 3.15 3.2 4.8.56.97 1.25 1.43 2.34 1.42 1.62-.03 3.25.04 5.36.11-1.1-1.75-1.88-3.06-2.74-4.32-.85-1.26-3.27-3.55-2.66-4.06.61-.5 2.17 1.7 2.94 2.68 1.02 1.35 1.88 2.85 2.83 4.27.55.84 1.19 1.51 2.33 1.54.86.03 2.77-.2 2.86.67.1.86-2.74.25-3.97.74-1.93 3.28-3.88 6.56-5.83 9.83-.07.12-.78.5-.64-.26.14-.74 3.32-6.37 5.2-10-2.25-.36-6.57.05-6.57.05s-.4.85-.7 1.31c-1.02 1.72-1.97 3.49-3.06 5.16-.3.46-.67.86-1.03 1.25-.24.2-.42.47-.67.65-.22.14-.67.17-.66-.19" fill="#518F8B" fill-rule="nonzero"/>
    <path d="M314.81 142.08a.49.49 0 0 0-.14-.13c-.5-.3-3.63-.05-4.48-.05-2.5 0-4.99.05-7.49.05h-12.26c-8.16.02-16.33.04-24.49.1-19.48.1-38.95.31-58.43.62-10.38.15-20.78.3-31.14.6-.5.03-.5.93 0 .93 36.63-.43 73.24-1.13 109.87-1.21 8.16-.02 16.32-.02 24.46-.01 1.27 0 4.1-.16 4.2-.27.18-.21.06-.46-.1-.63M178.18 113.7s.09-.1.14-.13c.5-.31 3.63-.13 4.49-.14 2.48-.06 4.98-.09 7.48-.15 4.09-.1 8.16-.21 12.25-.3 16.33-.38 32.67-.7 49-.93 8.15-.11 16.32-.2 24.48-.3l9.44-.1c10.38-.1 20.77-.19 31.16-.14.49 0 .52.92.03.92-36.63.47-73.26.67-109.9 1.49-8.15.17-16.3.37-24.45.58-1.25.03-4.1-.05-4.2-.16-.19-.22-.08-.47.08-.64" fill="#FFF" fill-rule="nonzero"/>
    <path d="M268.52 185.86c-11.41-.2-22.82-.55-34.18-.54-16.87.03-33.73.24-50.6.64-8.46.2-16.95.35-25.38.75-3.93.2-10.67 1.54-11.42-3.9-.35-2.76-.6-5.54-.74-8.31-.15-2.98-.29-6-.13-8.98.24-4.28.75-8.54 1.16-12.8.17-1.67 1.06-2.78 2.68-3.11 9.78-2.12 19.73-1.7 29.72-1.88 10.64-.19 21.3-.36 31.93-.54l63.87-1.1c8.28-.15 16.5-.12 24.78.16 2.14.07 4.3.07 6.44.31 1.5.16 3.4.92 3.77 2.66.45 2.09.6 4.08.58 6.18-.12 8.88-.44 17.76-.7 26.63-.05 2.02-1.04 2.98-2.98 3.12-12.9.95-25.84.93-38.8.71" fill="#E3C2AC" fill-rule="nonzero"/>
    <path d="M175.65 168.22c-.19 2.54-.6 5.05-1.24 7.5a7.63 7.63 0 0 1-1.42 3.14c-4.04 4.67-6.48-6.34-6.68-9.15-.28-3.7.25-7.43 1.03-11.04.3-1.36.63-2.74 1.37-3.87.73-1.13 1.94-1.96 3.16-1.77 2.03.3 2.98 2.97 3.35 5.25.53 3.27.67 6.63.43 9.94" fill="#FFF" fill-rule="nonzero"/>
    <path d="M297.41 149.48c0-.27-.06-.63.06-.81.4-.55 1.45-1.2 1.53.03.07 1.38.06 2.77.04 4.18-.02 3.87-.03 7.77-.1 11.64-.1 5.15-.2 10.29-.41 15.41-.03.74.32 2.2-.94 2.06-1-.1-.54-1.36-.53-2.1.12-10.14.15-20.28.35-30.4M187.53 183c-.68.04-.81-1.81-.84-2.32-.13-3.7-.2-7.4-.32-11.11-.13-4.38-.32-8.77-.44-13.16-.05-1.87-.36-5.44.96-5.41 1.32.03.9 6 .92 7.95.1 7.34.23 14.67.31 22.03 0 .41.12 1.57-.25 1.85a.67.67 0 0 1-.34.17m3.86 0c-.85-.1-.77-.73-.8-1.26-.14-3.78-.32-7.56-.36-11.33-.09-5.86-.09-11.7-.11-17.54 0-.72-.27-1.79.68-1.86 1.03-.1.84 1 .85 1.7.12 4.13.24 8.26.26 12.39.03 5.3-.03 10.6-.08 15.9 0 .7.22 1.5-.44 2" fill="#010101" fill-rule="nonzero"/>
    <path d="M258.08 183.64c8.65-.24 17.28-.58 25.95-.63 9.9-.05 19.8.14 29.72.26 1.66.03 3.33.2 5 .3 2.13.12 2.98.65 3.59 2.74 1.98 6.72 3.45 14.37 2.2 21.35-.46 2.44-1 4.88-1.63 7.27-.35 1.43-.7 1.5-2.23 1.56-3.06.11-6.13.34-9.19.52-1.38.1-2.77.22-4.17.29-9.12.45-18.24.89-27.4.86-6.9-.01-13.8.2-20.7.42-5.09.15-10.17.53-15.25.7-5.64.2-11.29.34-16.94.4-8.17.1-16.33.03-24.48.18-5.36.11-10.73.53-16.1.73-1.73.06-3.48-.14-5.21-.21-.63-.01-1.26-.07-1.88 0-4.23.48-8.45 1-12.66 1.49-.14.03-.29.04-.42.05-3.09.3-3.9-.16-4.59-3.15a48.3 48.3 0 0 1-1.25-7.35c-.3-4.35-.51-8.73-.42-13.08.04-2.6.62-5.22 1.2-7.78.23-1.09 1.04-2.07 1.7-3.02.7-.98 1.77-1.23 2.94-1.3 6.12-.4 12.24-.85 18.34-1.25 3.2-.2 6.41-.32 9.62-.44 6.27-.2 12.54-.46 18.83-.55 15.14-.18 30.28-.3 45.43-.46v.1" fill="#DF5632" fill-rule="nonzero"/>
    <path d="M262.33 208.09c-.58.42-1.37.46-2.1.49l-10.3.33-33.81 1.09c-1.76.04-2.32-.8-2.4-2.36-.2-3.55-.45-7.1-.69-10.65-.16-2.4.22-2.92 2.58-3.06 8.34-.5 16.68-1 25.03-1.39 4.34-.18 8.68-.36 13.03-.48 2.1-.07 7.65-.24 8.18.67.5.9.52 6.01.72 8.41.1 1.38 1.05 6-.24 6.95" fill="#3C3C3C" fill-rule="nonzero"/>
    <path d="M177.8 218.94c-.41.33-.84-.75-.87-1.56-.34-9.83-.68-19.63-1.04-29.46-.01-.25-.01-.52.13-.73.23-.3.7-.21.94.07.25.3.32.72.37 1.11.23 1.83.28 3.66.31 5.48.17 7.3.31 14.58.43 21.86.03 1.09.17 2.87-.26 3.23m-10.33-29.92c.63.21.72 2.96.77 4.48l.88 24.55c.02.88-.33 1.32-.86.56-.49-.67-.45-1.96-.49-2.77l-.9-24.33c-.02-.68-.02-2.71.6-2.5" fill="#010101" fill-rule="nonzero"/>
    <path d="M171.62 216.95c-.48-.29-.53-1.69-.57-2.14a894.32 894.32 0 0 1-1.52-26.02c-.02-.48-.04-1 .22-1.4.25-.41.87-.54 1.14-.17.1.18.13.4.14.63l1.44 27.22c.04.48.04 1.77-.58 1.92-.1.02-.19 0-.27-.04" fill="#FFF" fill-rule="nonzero"/>
    <path d="M312.05 214.95l-.2-.1c-.52-.38-.23-3.08-.25-3.74l-.2-7.96c-.13-5.43-.24-10.84-.35-16.26 0-.72.07-1.6.67-1.89.62.25.72 1.13.75 1.84.18 8.88.35 17.75.48 26.63.01.6-.22 1.77-.9 1.48m-108.32 2.03c-.63.28-.93-2.81-.94-3.36l-1.05-27.03c-.04-.36 0-.72.1-1.06.14-.34.46-.6.77-.51.45.12.54.76.55 1.27.15 9.54.75 19.01 1.1 28.53.02.47.03 1.16-.14 1.58-.14.34-.27.53-.4.58m70.01 0c-.63.28-.93-2.81-.94-3.36l-1.05-27.03c-.04-.36 0-.72.1-1.06.14-.34.46-.6.77-.51.45.12.54.76.55 1.27.15 9.54.75 19.01 1.1 28.53.02.47.03 1.16-.15 1.58-.13.34-.26.53-.38.58" fill="#010101" fill-rule="nonzero"/>
    <path d="M307.94 185.05c.1.06.17.19.23.28.31.63.38 1.38.42 2.1a71 71 0 0 1 .1 4.52c0 7.22.02 14.42.03 21.63 0 .32-.01.67-.14.94-.72 1.5-1.13-.95-1.13-1.45l-.17-27.14c0-.21 0-.43.08-.63.1-.2.32-.36.52-.28l.06.03zm-110.13 98.21c0 1.94-1.52 3.16-3.2 2.6-.85-.27-1.13-1.01-1.18-1.95-.26-4.75-.57-9.5-.84-14.26a531 531 0 0 1-.37-8.95c-.04-.8-.2-1.73.72-2.21 1.1-.58 2.26-.7 3.31-.07.4.24.65 1.05.72 1.62.2 1.82.36 3.67.41 5.52.06 2.48.44 14.28.43 17.7m112.15-7.96c-.05 1.9-.1 3.8-.17 5.71-.05 1.42-.44 1.96-1.45 1.99a2.1 2.1 0 0 1-2.11-1.99c-.1-1.77-.2-3.55-.2-5.32.03-3.91.14-7.82.17-11.72.03-1.84-.02-3.7 0-5.56.02-.93.11-1.85 1.12-2.21 1.58-.57 2.45.09 2.46 2 .02 2.12.02 4.26.02 6.4 0 1.23.18 9.83.16 10.7m-107.61 9.68c-.24-.1-.44-.58-.5-1.26-.2-2.54-.41-5.1-.5-7.65-.24-5.25-.38-10.5-.54-15.76a5.24 5.24 0 0 1 .12-1.7c.1-.29.56-.56.87-.6.18-.04.5.4.59.7.12.38.08.82.1 1.27l.6 21.5c.02.76.24 2 0 2.7-.25.67-.51.9-.74.8m-16.23-16.71c0-2.74-.01-5.47.01-8.2 0-.79-.24-2 .75-2.07 1.23-.05.72 1.25.7 1.95-.02 4.26-.19 8.55-.16 12.8 0 2.93.27 5.86.44 8.79.04.76.1 1.53.13 2.3.01.6-.07 1.24-.75 1.15-.28-.04-.68-.64-.69-1.03-.21-4.73-.38-9.48-.54-14.24-.02-.47.04-.97.06-1.45h.05z" fill="#FFF" fill-rule="nonzero"/>
    <path d="M452.93 359.25c-.1 2.84-.42 3.11-3.25 3.84a57.04 57.04 0 0 1-18.95 1.74c-4.1-.35-8.17-.9-12.23-1.41a6.24 6.24 0 0 1-2.48-.71c-.4-.26-1.09-49.83-2.07-148.71l3.55-1.89c3.55-1.89 12.56-2.4 18.94-1.97 3.28.24 7.87.56 10.87 1.76 2.92 1.17 3.45 3.88 3.57 6.86.58 14.02 2.5 128.8 2.05 140.5" fill="#216475" fill-rule="nonzero"/>
    <path d="M420.85 348.05l.03-14.1c.02-9.58.02-19.16.02-28.74.01-19.03.02-38.1-.01-57.14-.01-10.88-.4-21.73-.8-32.57-.03-.65-.88-.68-.92-.03-.27 4.77.1 9.59.3 14.37.18 4.65.25 9.33.28 13.98.03 9.55.02 19.08.02 28.62l.06 57.24c.03 5.48.04 10.98.05 16.46.01 5.48-.26 11.04.17 16.5.03.46.62.49.66.02.38-4.84.14-9.76.14-14.6m24.67-17.58c0-9.51 0-19 .02-28.5v-56.7c.02-10.62.51-21.39-.2-31.97-.03-.4-.55-.42-.57-.01-.66 9.33-.25 18.84-.25 28.2l-.02 28.67-.02 56.56c-.01 10.55-.5 21.25.06 31.78.02.64.86.66.9.02.5-9.3.08-18.74.08-28.05m-1.65-113.58a13.13 13.13 0 0 0-2.16-2.3 3.4 3.4 0 0 0-2.13-.8c-.88.04-1.63.56-2.21 1.13-.5.5-1.05 1.1-1.8 1.07-.61-.01-1.1-.44-1.55-.83-.49-.4-1.04-.75-1.6-1.05-.18-.11-.37-.2-.57-.2-.26.02-.5.2-.7.35-.82.72-1.55 1.54-2.15 2.42-.87-.38-1.7-.84-2.45-1.38-.6-.44-1.28-.93-2.03-.83-.37.06-.7.25-1 .47-.73.5-1.38 1.05-1.95 1.69-.28.3-.62.7-.56 1.11.06.41.5.54.92.38.3-.14.51-.41.74-.64.43-.44.93-.84 1.48-1.15.17-.11.37-.2.59-.2.38-.04.73.19 1.04.4a16.2 16.2 0 0 0 2.82 1.47c.39.14.87.26 1.2.04.2-.12.3-.34.4-.55.24-.5.56-.98.92-1.44.24-.27.53-.56.9-.57.4-.03.71.19.96.44.35.36.62.77.95 1.14.35.37.79.68 1.3.76.63.07 1.26-.26 1.72-.65.74-.59 1.27-1.37 2.06-1.9.32-.2.7-.37 1.09-.31.3.06.55.24.76.44.65.56 1.22 1.2 1.7 1.89.24.33.59.73 1.02.63.3-.07.46-.42.41-.72-.03-.1-.07-.21-.12-.3m-10.17 5.49c-.05-.8-.1-1.6-.21-2.38-.1-.75-1.28-.58-1.28.14 0 .84.07 1.67.13 2.5.03.67-.05 1.3.54 1.73.17.13.42.08.56-.05.54-.52.31-1.27.27-1.95m-9.02.11c-.08-.72-.13-1.43-.2-2.15-.03-.3-.17-.51-.46-.62a.38.38 0 0 0-.36 0 .58.58 0 0 0-.13.05c-.22.1-.33.35-.34.54-.03.75.03 1.49.11 2.23.07.67.04 1.27.62 1.7.23.15.53.03.68-.18.34-.5.15-1 .08-1.58m15.95-.85c-.05-.63-.09-1.27-.33-1.86-.18-.43-.78-.26-.91.1-.46 1.15-.17 2.91.1 4.1.15.73 1.39.63 1.34-.15-.05-.74-.14-1.46-.2-2.19m-8.32 130.92c.01.8.01 1.6.08 2.4.08.73 1.25.64 1.3-.1.05-.82.01-1.65 0-2.49-.01-.67.12-1.3-.46-1.75-.15-.13-.42-.1-.56.03-.58.48-.37 1.24-.36 1.91m9.01-.09c.05.72.05 1.44.08 2.14.01.32.15.53.42.65.13.06.24.07.36.03l.1-.04c.26-.08.38-.34.4-.54.08-.74.07-1.49.02-2.22-.04-.68.03-1.27-.54-1.73-.22-.15-.53-.06-.67.13-.39.48-.2 1-.17 1.58m-16.03.86c.03.63.02 1.27.24 1.88.15.43.76.29.9-.06.52-1.13.32-2.9.13-4.1-.12-.75-1.36-.69-1.35.08 0 .73.06 1.45.09 2.2" fill="#FFF" fill-rule="nonzero"/>
    <path d="M636.89 347.7c1.59 1.45 1.2 2.87.49 4.03a57.3 57.3 0 0 1-4.86 7.05c-1.72 2.05-3.85 3.77-5.8 5.66-.55.53-1.07.74-1.85.37-.46-.2-1.05-.2-1.57-.2-9.7.02-19.4.06-29.1.06-4.31 0-8.62-.08-12.92-.03-2.62.04-4.52-1.33-6.3-2.95-1.07-.96-1.29-2.22-.54-3.37.78-1.22 1.7-2.4 2.81-3.32 1.4-1.1 2.89-2.06 4.47-2.87 11.02-5.8 22.7-8.18 35.06-6.7 4.65.54 9.29 1.3 13.92 2.02 1.13.18 2.26.53 3.33.95 1.09.44 2.03.62 2.86-.7" fill="#DEF0F5" fill-rule="nonzero"/>
    <path d="M577.43 361.57c.83.1 1.14.17 1.44.16l16-.3c1.25-.04 2.48-.12 3.72-.1l27.15.6c.6.01 1.24.03 1.86.1.72.1 1.52.45 1.33 1.25-.1.5-.88.91-1.44 1.2-.38.19-.9.1-1.37.1-8.89-.26-17.8-.55-26.68-.73-2.4-.05-4.8.18-7.18.28-3.48.13-6.97.22-10.45.36-2.7.12-5.4.24-8.1.48-2.56.2-4.25-.62-5.28-3.12-2.83-6.84-5.84-13.63-8.75-20.43-1-2.35-1.92-4.74-2.96-7.04-3.47-7.68-7.02-15.32-10.47-23a183.7 183.7 0 0 1-3.05-7.25 7894.85 7894.85 0 0 1-13.84-34.65c-1.21-3.08-2.18-6.26-3.32-9.38-1.48-3.99-3.05-7.92-4.54-11.91a120 120 0 0 1-2.23-6.33 4.78 4.78 0 0 1 1.6-5.42c5.4-4.53 10.83-9 16.22-13.5.73-.6 1.5-1.12 2.18-1.75a8.04 8.04 0 0 1 7.08-2.07c6.95 1.07 13.92 2.12 20.86 3.32 6.17 1.05 12.3 2.3 18.47 3.49.81.15 2.44.67 3.77 1.35 1.98 1.03 6.92 15.8 8.53 19.52 3.57 8.2 7.11 16.42 10.66 24.61 9.18 21.25 18.37 42.48 27.47 63.74.75 1.78 1.5 3.57 2.15 5.37a41.3 41.3 0 0 1 1.44 4.66c.81 3.56.1 4.6-3.6 4.54-5.88-.1-11.75-.49-17.63-.63-6.49-.17-13-.04-19.5-.32-3.65-.16-6.49 1-9.22 3.36-3.27 2.83-6.88 5.25-10.35 7.85-.54.41-1.06.86-1.97 1.6" fill="#E6643E" fill-rule="nonzero"/>
    <path d="M595.02 257.47c2.1 1.5 8.6 22.42 7.93 23.23-.66.82-18.11-.3-22.15-.1-1.1.06-2.2.2-3.41-.06a63.03 63.03 0 0 1-2.73-7.27c-1.42-4.86-3.42-9.53-5.08-14.3-.25-.7-.68-1.37-.56-2.23.3-.13.57-.33.85-.38.7-.14 1.4-.29 2.11-.3 6.42-.17 20.93-.08 23.04 1.4" fill="#F5E7DE" fill-rule="nonzero"/>
    <path d="M544.4 224.02c.22-.06.5.01.62.2.25.36.47.77.63 1.2l6.3 16.95c.41 1.14.77 2.33 1.14 3.52a86.65 86.65 0 0 0 4.57 12.12c3.37 7.06 5.95 14.43 8.7 21.72 1.4 3.77 2.99 7.46 4.49 11.17 1.73 4.3 3.52 8.6 5.14 12.93a279.37 279.37 0 0 0 6.58 16.07 339.79 339.79 0 0 1 8.61 21.5c.33.88.6 1.76.8 2.66.07.24-.08.63-.26.79-.34.29-.78.13-1-.21a10.8 10.8 0 0 1-.96-1.8c-.6-1.53-1.14-3.06-1.7-4.58-2.76-7.55-6-14.9-9.18-22.29-1.32-3.03-2.52-6.12-3.75-9.22-2.3-5.81-4.62-11.63-6.9-17.44-1.59-4.03-3.2-8.04-4.69-12.1a235.8 235.8 0 0 0-8.1-19.95c-1.6-3.43-2.7-7.07-3.87-10.66-1.24-3.82-2.57-7.6-3.9-11.4-1.03-2.9-2.16-5.8-3.2-8.7a9.68 9.68 0 0 1-.46-2c-.04-.27.15-.44.4-.48" fill="#FFF" fill-rule="nonzero"/>
    <path d="M630.58 352.96c-5.93-.44-12.02-.06-17.97-.27-5.75-.2-11.52-.85-17.28-.89-.45 0-.43.66 0 .73 5.84 1 11.99 1.08 17.9 1.29 5.67.21 11.7.7 17.33.08.56-.06.6-.89.02-.94" fill="#BDCEDE" fill-rule="nonzero"/>
    <path d="M635.97 344.04a105.66 105.66 0 0 0-6.92-17.02c-.86-1.68-1.74-3.68-3.13-4.94-.22-.2-.55-.01-.5.32.38 1.8 1.43 3.43 2.22 5.06a141.1 141.1 0 0 1 2.45 5.22c1.56 3.54 2.92 7.15 4.18 10.8a336 336 0 0 1-11.61-.14c-.88-.01-.88 1.49 0 1.5 4.2.07 8.4.07 12.63.16.44.01.83-.5.68-.96m-44.14-104.65c-.76-2.58-1.7-5.1-2.8-7.54-.53-1.16-.57-1.5-1.75-1.88a22.8 22.8 0 0 0-3.87-.81 304.6 304.6 0 0 0-10.13-1.16c-.44.29-.3.85 0 .99 1 .39 5.5.68 6.35.82 1.44.25 4.05.58 5.48.9 1.74.39 2.4.81 3.12 2.46a58.16 58.16 0 0 1 2.56 7.28c.69 2.35 1.2 5.15 2.23 7.34.2.45 1.05.1.97-.29a96.27 96.27 0 0 0-2.16-8.11m-2.56 107.65c-3.05 1.16-5.8 3.57-8.32 5.57a161.73 161.73 0 0 0-4 3.31c-1.42 1.23-2.97 3.13-4.64 4-.65.32-.17 1.2.48 1.07 1.36-.23 2.55-1.72 3.56-2.57a368.9 368.9 0 0 1 4.3-3.56 126.4 126.4 0 0 1 4.82-3.74c1.45-1.04 3.07-1.95 4.37-3.14.4-.35-.02-1.16-.57-.94" fill="#FFF" fill-rule="nonzero"/>
    <path d="M376.69 364.07c-.7 1-11.8 1.9-15.02 1.92-6.54.08-18.7-.4-18.67-4.2.3-38.57.37-156.38 2.05-183.33.07-1.1 1.14-2.1 2.2-2.42 4.33-1.32 8.83-2 13.35-2.04 4.8 0 9.28 1.14 13.95 2.13 1.26.28 1.9 1.11 2.1 2.32.18 1 .36 2.03.35 3.06-.04 2.3-.05 4.62-.08 6.95-.33 36.17.46 174.63-.23 175.61z" fill="#DF5632" fill-rule="nonzero"/>
    <path d="M352.8 191.9c-.03 0-.08-.03-.08-.03-1.02-.57-.81-2.05-.26-2.77.93-1.22 1.83-2.48 2.78-3.7 1.45-1.85 2.95-3.69 4.42-5.53.2-.25.4-.5.64-.74 1.27-1.38 2.13-1.48 3.65-.37.53.4 1.01.85 1.47 1.3 2.64 2.77 5 5.8 7.05 9.03.09.13.15.28.23.43.66 1.36.23 2.21-1.33 2.28-2.43.13-4.86.12-7.3.1-2.44 0-4.87-.12-7.3-.12-.77 0-1.52.07-2.26.12-.5.04-1.21.2-1.7 0m6.89 11.13c-2.5-.1-5-.16-7.49-.3-1.38-.09-1.79-.45-2-1.66a11.2 11.2 0 0 1-.2-2.53c.05-.91 1.12-1.86 2.25-1.77 5.23.48 10.48.04 15.73.12.57.02 1.17 0 1.75.06.74.08 1.23.5 1.26 1.23a31.5 31.5 0 0 1-.16 3.48c-.09.83-.54 1.26-1.43 1.37a21.8 21.8 0 0 1-3.23.2c-2.16-.04-4.32-.16-6.49-.24v.04h.01z" fill="#FFF" fill-rule="nonzero"/>
    <path d="M348.46 289.75c.15-23.25.3-46.5.38-69.75.04-13.13.61-26.46-.07-39.57-.02-.56-.74-.58-.78-.02-.65 11.57-.22 23.27-.25 34.87l-.12 34.87c-.09 23.24-.22 46.49-.4 69.72-.1 13.2-.33 26.4-.32 39.59 0 .7.98.73 1 .01.47-23.23.4-46.49.56-69.72m26.26-69.24c0-13.37.32-26.8-.31-40.17-.03-.45-.64-.46-.66-.01-.52 11.8-.22 23.68-.2 35.5v35.48c0 37.05-.12 74.1-.35 111.14 0 .71 1 .74 1 .03.3-47.33.52-94.64.52-141.97" fill="#000" fill-rule="nonzero"/>
    <path d="M224 363.2c-.06 1.97-11.28 3.33-22.13 3.76-5.78.25-22.04-.79-22.87-1.51-.83-.73-.29-10.81-.3-11.48-.31-38.3-.83-133.7-.61-143.04.04-1.6.01-11.9.96-13.07 1.01-1.25 16.74-1.89 19.51-1.86 11.3.13 22.6 1.46 23.58 2.74 1.18 1.53.84 5.3.95 7.1.2 3.46.23 6.9.26 10.36v.66c.1 9.5.71 144.39.65 146.34z" fill="#562111" fill-rule="nonzero"/>
    <path d="M198.34 203.02c1.53-.04 3.05 0 4.56.05 3.94.16 8.08.56 11.35 2.8 1.46 1 2.76 2.54 2.75 4.33a4.54 4.54 0 0 1-1.29 2.94 8.67 8.67 0 0 1-2.66 1.83c-3.96 1.87-8.48 2.12-12.84 2-2.48-.01-4.96-.3-7.38-.86-3.32-.84-8.9-3.22-7.65-7.72.54-1.92 2.43-3.1 4.28-3.81a27.05 27.05 0 0 1 8.88-1.56" fill="#E3C2AC" fill-rule="nonzero"/>
    <path d="M522.61 343.53c-.13 6.26-.26 11.01-.3 15.75-.01 1.56-.58 2.26-2.1 2.92-9.04 3.92-18.17 3.25-27.38.88-.63-.16-.7-.1-1.28-.42-.75-.41-.53-4.3-.48-5.37.43-10.7.86-130.54.7-135.21-.04-1.18.16-2.38.25-3.55.15-2.16 1.35-3.49 3.4-3.83 2.13-.37 4.31-.75 6.48-.7 5.36.14 10.73.42 16.08.8 3.2.2 4.3 1.38 4.5 4.67.24 3.99.34 7.96.37 11.95.02 3.56-.2 7.14-.16 10.7.05 7.64-.1 96.56-.07 101.42" fill="#8DC7D6" fill-rule="nonzero"/>
    <path d="M450.04 206.02c-.02-3.92-.08-7.83 0-11.75.04-2.13.35-2.24 2.4-2.92 4.43-1.49 12.9-2.45 17.51-2.34 7.44.14 10.95.96 18.3 2.15l.5.06c4.13.64 5.16 1.79 5.25 6 .03 1.07-.19 23.69-.65 67.87-.74 54.46-1.2 85.6-1.38 93.44-.09 3.67-1.15 5.3-4.57 6.39a50.9 50.9 0 0 1-7.08 1.51c-7.11 1.16-14.17.41-21.14-1.01-2.42-.47-4.69-1.71-7.03-2.64-1.4-.56-2.02-1.6-2-3.16.61-39.45-.09-141.8-.11-153.47v-.13z" fill="#A5483D" fill-rule="nonzero"/>
    <path d="M453.48 194.89c.54-.44 1.61-.38 2.26-.42 1.51-.12 3.03-.07 4.54-.04l26.8.48c.24 0 .5 0 .74.02 1.55.08 1.76.22 1.87 1.64.14 1.85.23 3.7.3 5.57.02.51-.03 1.08-.16 1.6-.23.9-.8 1.57-1.87 1.67-1.19.11-2.38.2-3.56.2-4.09-.04-8.16-.16-12.24-.2-3.4-.06-6.82-.08-10.22-.04-1.52 0-8.34.45-8.52-.86a46.2 46.2 0 0 1-.41-5.2 19 19 0 0 1 .08-2.45c.05-.52-.04-1.1.13-1.6a.8.8 0 0 1 .26-.37" fill="#000" fill-rule="nonzero"/>
    <path d="M470.44 211.99l-11.9.12c-.66 0-1.34-.01-2.01-.06-.33-.02-.72-.07-.95-.25-.3-.23-.5-.56-.58-.93-.02-.2.33-.6.58-.64.9-.2 1.82-.34 2.73-.34 4.64 0 9.27.07 13.91.08 4.46.02 8.94-.1 13.4-.04 1.6.02 3.18.28 4.77.49.24.03.62.38.61.59 0 .21-.35.52-.61.6-.56.13-1.16.19-1.75.2-6.06.1-12.14.17-18.2.24v-.06z" fill="#FFF" fill-rule="nonzero"/>
    <path d="M477.43 342c-.82 0-1.69-.2-2.6-.56a.96.96 0 0 1-.52-1.28c.21-.48.8-.72 1.3-.52 1.58.67 2.86.49 3.79-.42 1.4-1.41 1.98-4.8 1.29-7.38-.6-2.27-2.15-3.9-3.68-3.9h-.08c-1.49.06-3.1 1.6-4.1 3.9-.36.82-.64 1.73-.92 2.63-.4 1.3-.82 2.63-1.47 3.79-1.27 2.32-3.32 3.57-5.37 3.3-1.96-.26-3.69-1.92-4.53-4.34-.82-2.39-.7-5.41.33-7.53a4.78 4.78 0 0 1 2.95-2.66 3.2 3.2 0 0 1 2.64.41c.46.3.58.91.27 1.35-.32.46-.95.57-1.4.27-.32-.2-.61-.3-.97-.16-.63.16-1.25.78-1.66 1.62a8.55 8.55 0 0 0-.25 6.09c.58 1.68 1.72 2.87 2.9 3.01 1.07.17 2.47-.74 3.32-2.27.54-1 .92-2.18 1.32-3.45.3-.96.6-1.93.98-2.8 1.32-3.06 3.58-5.02 5.9-5.1h.13c2.48 0 4.79 2.18 5.64 5.36.88 3.25.1 7.3-1.8 9.21a4.66 4.66 0 0 1-3.41 1.43m1.43-29.12c-.24 0-.48.01-.75.04l-13.57 1.2c-1.2.1-2.63.76-2.58 3.3.03 2.14 1.39 2.81 2.18 2.86l10.71.76c1.22.1 2.35.16 3.39-.23a4.36 4.36 0 0 0 2.5-2.77c.54-1.52.36-3.66-.36-4.56-.37-.45-.83-.6-1.52-.6M476.29 323c-.54 0-1.08-.04-1.57-.06l-10.72-.77c-1.89-.13-3.93-1.67-4-4.72-.05-3.56 2.22-5.02 4.36-5.21l13.56-1.2c.98-.06 2.75-.25 3.99 1.26 1.3 1.62 1.32 4.5.67 6.36a6.36 6.36 0 0 1-3.63 3.92c-.9.33-1.8.42-2.66.42m-10.15-36.7c3.57.24 7.15.48 10.71.75 1.2.09 2.34.15 3.39-.24a4.32 4.32 0 0 0 2.49-2.77c.54-1.53.39-3.67-.35-4.57-.48-.6-1.08-.63-2.29-.54l-13.55 1.2c-1.2.12-2.63.76-2.58 3.3.03 2.14 1.44 2.81 2.18 2.86m12.15 2.71c-.54 0-1.07-.04-1.58-.06-3.57-.27-7.13-.5-10.71-.76-1.88-.12-3.93-1.66-4-4.73-.06-4.45 3.32-5.12 4.36-5.2l13.57-1.2c1.06-.09 2.77-.23 3.98 1.25 1.3 1.63 1.32 4.5.66 6.36a6.28 6.28 0 0 1-3.62 3.92c-.9.33-1.8.42-2.66.42m-12.15-23.71l10.71.75c1.14.08 2.32.18 3.39-.23a4.3 4.3 0 0 0 2.49-2.76c.56-1.55.39-3.64-.35-4.56-.48-.59-1.1-.66-2.27-.55l-13.57 1.2c-1.2.12-2.63.76-2.58 3.28.03 2.15 1.44 2.82 2.18 2.87m12.18 2.71c-.57 0-1.12-.04-1.61-.08l-10.71-.75c-1.88-.12-3.93-1.66-4-4.72-.05-3.54 2.22-5 4.37-5.19l13.56-1.18c1-.15 2.76-.26 3.98 1.26 1.3 1.6 1.32 4.47.66 6.33a6.27 6.27 0 0 1-3.62 3.92c-.9.32-1.79.41-2.63.41M464 308.57c-1.07 0-2.75-.24-3.6-1.93-.9-1.86-.16-4.47 1.1-5.73 1.35-1.32 3.06-1.51 4.3-1.64a.94.94 0 0 1 1.13.77c.07.5-.33.94-.88 1-1.29.15-2.26.3-3.03 1.07-.8.8-1.3 2.67-.75 3.8.35.7.84.93 2.25.83 4.83-.26 9.66-.52 14.5-.8 1.67-.08 2.71-.35 3.4-1.48a4.77 4.77 0 0 0-.06-4.53 1.5 1.5 0 0 0-1.11-.69c-.34 0-.7.18-1 .54-.3.41-.94.5-1.4.2-.46-.3-.56-.86-.23-1.25a3.4 3.4 0 0 1 2.63-1.3h.13c1.07.05 2.07.61 2.71 1.56a6.32 6.32 0 0 1 .12 6.33c-1.35 2.23-3.78 2.36-5.06 2.43l-14.5.8-.65.02m.04-55.01c-1.11 0-2.78-.23-3.63-1.93-.92-1.86-.18-4.46 1.11-5.72 1.33-1.32 3.05-1.52 4.3-1.65a.92.92 0 0 1 1.12.77c.08.5-.33.95-.88 1-1.3.15-2.27.3-3.02 1.08-.82.79-1.33 2.66-.76 3.79.35.72.92.97 2.26.85l14.47-.82c1.42-.07 2.67-.22 3.41-1.45.75-1.23.72-3.4-.06-4.56a1.44 1.44 0 0 0-1.07-.68h-.03c-.35 0-.7.19-1 .55-.33.4-.96.5-1.41.2-.46-.3-.55-.86-.23-1.26a3.4 3.4 0 0 1 2.64-1.3h.1c1.1.04 2.08.6 2.73 1.56a6.34 6.34 0 0 1 .12 6.33c-1.34 2.22-3.76 2.35-5.06 2.43l-14.49.8-.62.01m-3.06 41.98c-.51 0-.94-.36-.98-.84-.04-.49.38-.92.91-.96 7.03-.44 14.04-.86 21.06-1.28h.07c.5 0 .93.36.96.84.04.49-.37.93-.91.97l-21.05 1.27h-.06zm0-18.32c-.51 0-.94-.36-.98-.84-.04-.49.38-.92.91-.96l20.12-1.23-.07-1.81c-.04-.92-.08-1.83-.1-2.7 0-.48.43-.9.96-.9h.01c.53 0 .98.4.99.88.01.84.05 1.76.08 2.64l.1 2.72c0 .48-.39.88-.92.92l-21.04 1.28h-.06z" fill="#C1A79D" fill-rule="nonzero"/>
    <path d="M480.66 249.68a.9.9 0 0 1-.9-.9l-.1-7.55c0-.31.15-.61.43-.8a.97.97 0 0 1 .89 0c1.35.72 2.78.82 4.17.36a.88.88 0 0 1 1.14.54.89.89 0 0 1-.55 1.14 6.6 6.6 0 0 1-4.27.1l.1 6.2c0 .49-.4.9-.9.9l-.01.01zm-16.92-8.19c-.98 0-1.96-.08-2.93-.25-.54-.1-.9-.57-.8-1.06.12-.49.66-.78 1.2-.7 2.31.39 4.68.26 7-.49a4.1 4.1 0 0 0 2.31-1.47c.58-.78.92-2.27.5-3.28-.34-.81-1-1.03-2.1-1.15l-7.22-.78c-.54-.06-.93-.5-.88-.98.07-.5.66-.93 1.1-.8l22.18 1.94c.55.04.95.48.9.97-.06.47-.49.81-1 .81h-.1l-11.16-.98.16.34a5.4 5.4 0 0 1-.7 4.9 6.24 6.24 0 0 1-3.31 2.18c-1.7.54-3.43.8-5.15.8" fill="#C1A79D" fill-rule="nonzero"/>
    <path d="M490.96 245.48c.18-9.97.57-20 .38-29.97-.01-.66-.89-.69-.92-.03-1.05 17.57-.83 35.32-1.07 52.92-.24 17.65-.43 35.3-.58 52.94-.07 10-.12 20-.16 29.97 0 .9 1.24.93 1.24.04.16-35.29.53-70.58 1.1-105.87m-36.65-.01c0-9.98.22-20.01-.16-29.98a.46.46 0 1 0-.92 0c-.72 17.6-.17 35.33-.1 52.93.13 27.64.39 55.27.78 82.91.01.89 1.26.9 1.25 0a8489 8489 0 0 1-.84-105.86" fill="#000" fill-rule="nonzero"/>
    <path d="M415.76 363.8a51.23 51.23 0 0 1-17.32 3.17c-6.06.1-12.17.1-18.08-1.65-.73-.2-1.53-.16-2.65-.26-.2-1.04-.59-2.09-.59-3.14l-.01-3.3-.02-1.82V351l-.04-15.88c-.02-13.5-.08-26.97-.04-40.46 0-3.26.47-6.5.47-9.78-.02-11.52-.22-23-.24-34.52 0-10.68.08-21.33.15-31.99l.01-2.12.04-5.33c.03-3.34.96-5.99 4.32-6.57 5.61-1 8.4-1 14.1-1.26 4.8-.21 14.48-.3 18.86 2.16 1.96 1.12 1.9 2.57 1.94 4.73.03 2.26.07 4.5.08 6.76.03.57.03 1.13.03 1.7.12 9.39.19 18.75.24 28.12.08 15.8 0 31.62.15 47.42.08 8.94.52 17.86.72 26.78.1 3.87-.05 7.74-.05 11.6l-.03 18.54v7.75c0 .51 0 1.03.08 1.54.31 2.45.14 2.76-2.12 3.6" fill="#203954" fill-rule="nonzero"/>
    <path d="M403.57 308.15c.68-2.26.63-4.2.8-6.08.14-1.82.32-3.64.52-5.45.05-.43.2-.85.4-1.23a.78.78 0 0 1 .6-.39c.2-.01.56.16.61.35.22.65.43 1.32.45 2 .19 3.59-.2 7.15-.67 10.67-.1.68-.35 1.36-.68 1.97-.55 1.05-1.65 1.3-2.6.66-.64-.45-1.2-.99-1.79-1.49-2.04-1.72-4.03-3.49-6.08-5.2a7.98 7.98 0 0 0-5.41-2.03 6.7 6.7 0 0 0-2.21.54c-.96.4-1.26 1.16-1.05 2.12.3 1.52.97 2.05 2.5 1.96.33-.03.69-.2 1-.15.33.05.75.24.84.46.1.36.04.82-.08 1.2-.05.21-.33.4-.54.51-1.73.8-4.76.47-5.73-2.3-1.3-3.74.33-5.95 3.63-6.52a9.7 9.7 0 0 1 7.96 2.05c1.94 1.58 3.81 3.22 5.71 4.84l1.82 1.51m-1.02-36.9c-.04-.76-.03-1.26-.1-1.74-.47-3.69-.96-7.37-.6-11.1.06-.6.09-1.22.24-1.8.09-.25.43-.61.67-.61.24 0 .62.3.72.56.22.63.43 1.33.42 2-.02 3.92.66 7.76 1.01 11.6.07.7.13 1.39.06 2.07-.14 1.47-1.13 2.11-2.45 1.6-.67-.26-1.3-.7-1.91-1.16-1.75-1.27-3.46-2.6-5.18-3.92-1.2-.9-2.47-1.74-3.93-2.1-.94-.21-1.93-.35-2.9-.33-.52 0-1.15.26-1.53.66-1.06 1.06-1.22 2.22.34 3.1.5.3 1.09.4 1.57.7.24.14.43.51.48.8a.8.8 0 0 1-.63.97c-.47.1-.98.19-1.45.1-1.97-.38-3.4-2.03-3.38-3.85.01-2.36 1.62-4.41 3.81-4.67a10.4 10.4 0 0 1 7.52 1.81c1.9 1.32 3.73 2.78 5.6 4.19.45.33.93.65 1.62 1.12M416 216.94c-4.14.08-8.28.2-12.4.18-7.06-.05-14.11-.22-21.15-.29-1.82-.01-3.63.01-5.45.05.01-.64.03-1.27.03-1.92a45.8 45.8 0 0 1 2.87-.08c11.51.13 23.03.3 34.55.48.5 0 1 .02 1.52.04.03.52.03 1.02.03 1.54m2 134.56c-1.69.1-3.39.21-5.08.24-7.25.1-14.5.15-21.74.22-4.28.04-8.56.09-12.84.04-.44 0-.88-.02-1.33-.05l-.01-1.82c7.58.01 15.17.06 22.73-.06 5.76-.1 11.52-.12 17.28-.05l.99.02v1.47-.01zm-18.4-63.68c-.56-.63-1.42-.97-1.76-2-.04-.15 1.25-1.33 1.4-1.5.38-.4.93-.85 1.2-1.34.25-.48 0-1.43-.58-1.6-.89-.26-2.02 1.3-2.6 1.82-.44.4-.92.8-1.44 1.26-.64-.42-1.53-1.19-2.12-1.54-.5-.3-1.62-1.14-2.07-.42-.18.28-.04.5.1.76.56 1.05 1.47 1.94 2.3 2.8-.09.21-.09.3-.13.35-.52.58-1.06 1.14-1.56 1.72-.3.35-.6.72-.84 1.1-.23.38-.1 1.06.3 1.24.3.14.82.25 1.06.1.65-.41 1.2-.98 1.8-1.48l1.42-1.27c.76.61 1.4 1.17 2.09 1.65.43.32.91.6 1.41.76.23.07.63-.12.8-.31.18-.2.3-.64.2-.84-.25-.46-.64-.85-.98-1.26" fill="#DEF0F5" fill-rule="nonzero"/>
    <path d="M344.54 330.1c-.03 6.1.22 12.06.26 18.13.04 3.52-.08 7.05-.08 10.57 0 3.1-.74 5.37-3.55 6.2-2.38.7-4.8 1.28-7.24 1.52-6.6.6-13.21 1.2-19.82 1.44-4.1.16-8.21-.25-12.3-.62-2.89-.27-5.76-.92-8.65-1.4-.39-.08-.77-.2-1.14-.35-3.14-1.16-3.25-1.33-3.48-5.57-1-19.08.89-148.03 1.03-148.59.1-.44 4.65-3.01 6.69-3.42 14.7-3.05 21.68-2.1 36.37-.61.72.06 9.03 1.92 9.74 2.13 1.8.55 2.42 1.53 2.45 3.9.2 17 .21 34 .14 51.03-.09 21.88-.32 43.78-.42 65.64z" fill="#010101" fill-rule="nonzero"/>
    <path d="M313.2 276.46c-.02 1.46-.11 2.85-.07 4.25.05 1.44-.28 2.94.22 4.4 1.29.2 2.6.13 3.85-.24a5.97 5.97 0 0 0 3.34-1.78c.5-.57 1-1.25 1.18-1.98a4.78 4.78 0 0 0-4.63-5.86c-1.38.03-2.64.5-3.9 1.21m10.13 11.34c1.98 3.26 3.9 6.49 5.85 9.7.4.68.86 1.32 1.22 2 .26.54.47 1.14.58 1.74.17.98-.3 1.96-1.17 2.45a2 2 0 0 1-2.4-.2 7.34 7.34 0 0 1-1.53-1.74c-1.5-2.35-2.92-4.74-4.4-7.12l-2.71-4.4c-1.97-.31-3.65.6-5.55.31-.1.74-.24 1.24-.27 1.73l-.13 6.87a8.84 8.84 0 0 1-.6 3.36c-.38.87-.96 1.28-1.76 1.25-.9-.04-1.46-.6-1.65-1.42a14.74 14.74 0 0 1-.5-3.1c-.15-5.54-.26-11.1-.3-16.65-.02-2.44.19-4.9.3-7.37.02-.98.5-1.9 1.31-2.46 3.56-2.59 7.38-3.65 11.6-1.87a8.32 8.32 0 0 1 4.6 4.72c.3.73.52 1.49.73 2.25.95 3.14.17 5.9-1.82 8.35-.44.53-.92 1.04-1.4 1.6" fill="#DF5632" fill-rule="nonzero"/>
    <path d="M313.8 242.72c.5.02.99.06 1.47.03l5.8-.32c.37-.04.75-.17 1.18-.26a30.2 30.2 0 0 0-1.62-6.83c-.4-1.02-.9-2-1.4-2.98-.19-.35-.45-.74-.96-.64-2.03 2.5-4.12 7.59-4.47 11m8.96 4.97c-3.36-.38-6.68 0-10.04.4-.63.78-.67 1.74-.86 2.61-.32 1.43-.51 2.86-.81 4.29-.17.72-.37 1.49-.7 2.16a2.22 2.22 0 0 1-2.25 1.35 2.36 2.36 0 0 1-2-2c-.14-.84-.13-1.7.03-2.54.96-4.84 2-9.66 3.1-14.47.79-3.34 2.29-6.4 3.92-9.38a13.3 13.3 0 0 1 1.74-2.5c1.82-1.94 3.95-2.13 6.13-.56a8.92 8.92 0 0 1 3.04 3.68 48.6 48.6 0 0 1 2.12 5.73c1.3 4.6 1.74 9.36 2.23 14.1.2 1.95.4 3.9.56 5.85.06.6.02 1.19-.1 1.77-.22.99-.9 1.64-1.9 1.8a2.2 2.2 0 0 1-2.31-1.2 5.16 5.16 0 0 1-.52-1.7c-.3-2.28-.56-4.57-.81-6.85-.08-.83-.05-1.7-.57-2.54" fill="#FFD186" fill-rule="nonzero"/>
    <path d="M321.05 324.02c-.24 1.56-.1 2.8.05 4.03.58 4.74.8 9.48.97 14.23a6.12 6.12 0 0 1-.58 3.41c-.33.72-.92 1.25-1.76 1.3-.96.07-1.64-.46-2.1-1.21a5.89 5.89 0 0 1-.74-2.9c-.07-2.32-.12-4.65-.3-7-.28-3.73-.64-7.48-.98-11.2 0-.16-.14-.3-.3-.6-.5-.02-1.07-.05-1.65-.06-1.57-.03-3.12-.05-4.67-.09a3.15 3.15 0 0 1-2.15-.76c-.65-.61-1.03-1.36-.75-2.25.27-.96.91-1.6 1.99-1.75l.5-.04c6.4-.13 12.8-.22 19.18 0 .59.03 1.2.16 1.75.35 1 .38 1.49 1.11 1.49 2.14-.01 1.04-.5 1.78-1.5 2.13a7.2 7.2 0 0 1-2.02.36c-1.38.03-2.76-.03-4.14-.05-.68 0-1.36-.03-2.29-.04" fill="#8DC7D6" fill-rule="nonzero"/>
    <path d="M338.66 212.98c-3.58-.78-7.51-.61-11.17-.74-7.98-.23-15.96-.26-23.94-.1l-5.53.16c-1.64.06-3.29-.06-4.82.51-.33.12-.21.58.08.67 1.66.47 3.46.17 5.17.11 9.36-.33 18.73-.34 28.09-.03 3.92.1 8.07.67 11.97.27.5-.06.73-.72.15-.85" fill="#FFF" fill-rule="nonzero"/>
    <path d="M283.48 364.32c-6.1.92-12.24.92-18.34-.08a8.46 8.46 0 0 1-2.17-.79c-.95-.36-1.73-3.63-1.8-4.31l-.02-.75c-.02-.55.23-118.88.29-138.49.01-6-.07-12.02-.15-18.04l-.04-2.16-.04-2.7v-.16c-.01-.9 0-1.62.08-2.2.21-1.9 1.06-2.35 3.75-2.81 2.57-.45 5.18-.83 7.78-.83 4.6.03 9.2.22 13.8.58 3.39.26 4.14.86 4.33 4.08l.02 1.09.03 1.14c0 1.06-.01 2.1-.03 3.16-.02.84-.05 1.66-.06 2.5l-.04 1.85c-.16 10.12-.37 20.2-.5 30.3-.16 14.18-.28 28.34-.43 42.52h-.2c-.36 26.39-.72 52.77-1.1 79.15v.29c0 .77-.03 1.45-.08 2.06-.28 3.18-1.35 4.04-5.08 4.6z" fill="#355694" fill-rule="nonzero"/>
    <path d="M291 201.48l-.05 2.28c-9.97-.45-19.94-.96-29.91-1.53-.03-.66-.03-1.32-.04-2 5.28.21 10.57.4 15.87.6 2.86.09 5.72.15 8.57.3 1.85.1 3.7.21 5.56.35m0-3l-.64-.02c-4.4-.17-8.8-.24-13.2-.36-3.7-.09-7.4-.11-11.1-.27-1.7-.07-3.37-.16-5.06-.3 0-.82 0-1.48.08-2.01 6.4.12 12.78.2 19.18.4 3.57.1 7.13.27 10.69.52l.04 1 .01 1.04" fill="#000" fill-rule="nonzero"/>
    <path d="M264.99 362.2c.52 3-14.17 3.6-20.4 3.77-11.71.32-20.41-2.05-21.4-2.6-1-.53-1.16-11.5-1.17-16-.16-38.4.93-123.07.96-124.77.04-1.7.05-3.66 1.6-4.05 2.23-.58 5.39-.9 7.7-1.1 4.7-.4 9.44-.5 14.18-.43 4.57.07 9.39 0 13.94.6 2 .26 2.52.69 2.65 2.72.3 4.48.59 8.98.7 13.46.4 19.18 1.1 127.63 1.24 128.4" fill="#7FADAA" fill-rule="nonzero"/>
    <path d="M252.78 259.46c-.54.69-19.06.8-19.12-.14-.1-1.28-.17-3.53-.2-4.84-.16-7.68-.3-15.38-.45-23.07-.03-1.3 0-4.5.05-5.81.1-1.88 19.14-2.09 19.41-.7.27 1.37.85 33.86.3 34.56m.9 13.67c.38.42.58 3.61-.22 3.85-.79.27-19.76.39-20.11-.14-.36-.53-.58-3.85.12-4 .27-.06 19.85-.14 20.2.29m-20.11-4.99c-.49 0-.76-3.67-.35-3.98.39-.31 19.93-.58 20.4-.18.44.4.56 3.5.14 3.9-.39.38-17.15.4-20.2.26m4.3 81.53c-.01-2.03-.02-4.08-.05-6.11l-.18-13.16c-.1-8.67.2-17.38-.45-26.03-.04-.46-.96-.5-.99-.06-.42 8.63.1 17.36.2 26.02l.17 12.85.1 6.44c.04 1.99-.34 4.23.35 6.2.08.2.57.26.65.03.64-1.93.21-4.19.2-6.18m11.11-19.39a460.2 460.2 0 0 1-.44 19.15c-.1 2.07.11 4.34-.6 6.38-.1.28-.57.24-.63-.02-.48-1.98-.05-4.2.01-6.26.08-2.2.17-4.39.23-6.6.12-4.27.19-8.55.19-12.85a457.7 457.7 0 0 0-.54-25.68c-.02-.47.96-.56.98-.1a506 506 0 0 1 .8 25.98" fill="#216475" fill-rule="nonzero"/>
    <path d="M173.76 366.47c-12.57 1.76-23.98 2.18-36.64.3-3.26-.48-14.15-19.37-14.12-25.54.14-25.56 1.55-111.78 2.08-129.31.07-1.77.38-3.57.73-5.3.28-1.42 1.24-2.16 2.77-2.21 2.26-.07 4.51-.48 6.75-.4 13.29.37 26.56.83 39.84 1.26.43 0 .86.04 1.29.09 2.76.34 2.67 2.56 2.9 5.37.28 3.24.58 149.96.63 150.98.21 3.97-2.86 4.3-6.23 4.76z" fill="#144683" fill-rule="nonzero"/>
    <path d="M146 343.32c.1-.94.14-1.9.28-2.84.18-1.98 36-20.35 37.33-20.45 1.91-.19 3.32.6 3.96 2.4.37 1.07.54 2.3.44 3.45-.08 1.19-.14 2.33.38 3.43.9 2 .79 3.94-.24 5.83a4 4 0 0 0-.38 3.4 4 4 0 0 1-.1 2.79 7.43 7.43 0 0 0-.08 4.95c.06.2.1.42.14.65.37 1.97-.16 3.6-1.95 4.59-2.04 1.15-37 12.43-37.78 12.51-1.19.14-1.85-6.77-2-20.71z" fill="#DEF0F5" fill-rule="nonzero"/>
    <path d="M35.64 369.84a51.3 51.3 0 0 1-4.47-.48c-1.41-.23-1.97-1.21-2.16-2.43a50.72 50.72 0 0 1-.52-4.47c-.4-5.83-.75-11.65-1.12-17.47-.12-1.89-.33-3.77-.37-5.64-.05-2.12.55-2.92 2.66-3.4 1.58-.35 3.22-.56 4.82-.69 4.23-.34 8.46-.72 12.74-.7 5.59.03 11.18-.35 16.78-.56 4.98-.17 9.95-.33 14.93-.54 2.8-.1 5.6-.34 8.39-.47 3.64-.18 7.27-.33 10.9-.46 3.52-.13 7.05-.28 10.59-.29 4.07-.03 8.16.08 12.26.12l11.75.12c1.4.01 1.95-.37 2.3-1.74.23-.94.28-1.95.4-2.94.3-2.59.57-5.2.84-7.79.14-1.46.26-1.65 1.7-1.7 6.32-.12 12.64-.27 18.97-.3 5.05-.03 10.08.11 15.12.12 4.26.02 8.5-.05 12.77-.07.56 0 1.11.05 1.67.11.91.15 1.53.6 1.81 1.51.3.96-.01 1.69-.75 2.2-.96.65-1.94 1.34-3 1.8a984.25 984.25 0 0 1-32.84 13.28c-1.36.52-1.92 1.36-2.04 2.69-.15 2.03-.45 4.1-.55 6.14-.21 4.33-.36 8.66-.53 13-.05 1.8.58 2.4 2.34 1.9 2.86-.8 5.7-1.64 8.5-2.63 7.87-2.78 15.73-5.54 23.85-7.5 2.12-.5 4.3-.77 6.45-1.15.33-.06.73-.12 1 .02.44.25.98.6 1.14 1.01.12.35-.17 1.02-.5 1.3-.57.5-1.26.92-1.97 1.23-3.14 1.32-6.26 2.75-9.49 3.84-8.52 2.9-17.08 5.7-25.7 8.37-3.6 1.12-7.34 2-11.09 2.59-5.75.9-11.85.63-17.67.81-25.55.84-51.11 1.29-76.68 1.34-4.44.02-8.85.21-13.23-.08" fill="#8DC7D6" fill-rule="nonzero"/>
    <path d="M143.66 337.5c-7.58-.04-15.16.11-22.75.08-7.48-.05-14.98-.13-22.47-.12-15.15.01-30.29.31-45.43.91-8.5.35-17.1.53-25.57 1.34-.57.05-.6.84 0 .83 7.6-.21 15.22-.81 22.83-1.14 7.51-.3 15.03-.56 22.56-.72 15.12-.36 30.23-.3 45.35-.21 8.49.07 17.02.24 25.48-.33.45-.02.46-.63 0-.65" fill="#FFF" fill-rule="nonzero"/>
    <path d="M65.6 342.95c.03-.54.03-1.07.07-1.62 0-.27.06-.53.13-.8.08-.3.45-.54.78-.53.32.01.6.18.72.44.13.34.24.69.29 1.06.08.88.15 1.78.2 2.68.06 1.67.14 3.35.14 5 0 4.32.22 8.66.44 12.99.04.76.02 1.52-.03 2.29 0 .19-.23.4-.42.5-.21.12-.6-.05-.75-.31a2.6 2.6 0 0 1-.3-.63c-.1-.53-.2-1.06-.24-1.6-.22-2.84-.42-5.68-.6-8.51-.09-1.54-.1-3.06-.16-4.6-.05-2.11-.12-4.23-.2-6.36h-.07zm-5.38 18.64a12 12 0 0 1-.24 1.22c0 .09-.2.19-.3.19-.2 0-.45-.04-.56-.14a1.25 1.25 0 0 1-.3-.57c-.13-.75-.29-1.5-.34-2.27-.12-1.81-.19-3.62-.25-5.44-.07-2.44-.1-4.88-.19-7.32-.06-1.9-.2-3.79-.26-5.68 0-.38.04-.76.12-1.13.04-.28.28-.42.62-.45.36-.01.7.18.82.48.06.17.1.33.13.5.4 2.7.59 5.39.54 8.09-.03 1.66.03 3.35.06 5.04l.06 3.03.1 4.45m81.9-.25c-.04.3-.08.72-.18 1.12-.07.28-.26.51-.6.54a.74.74 0 0 1-.78-.57 4.77 4.77 0 0 1-.25-1.09c-.08-1.07-.17-2.14-.2-3.2-.1-2.8-.23-5.6-.25-8.38-.02-2.66.08-5.31.15-7.96.01-.43.1-.85.22-1.23.12-.4.57-.63.95-.56.4.1.64.33.7.68.06.31.05.64.05.98 0 4-.06 8-.03 12 0 2.29.13 4.57.2 6.86l.02.81" fill="#57A7BD" fill-rule="nonzero"/>
    <path d="M184.3 326.04c-5.96 2.41-11.9 4.88-17.92 7.14-2.9 1.1-5.79 2.16-8.7 3.2-2.84 1.02-5.78 1.87-8.53 3.09-.32.15-.08.6.26.52 3.08-.73 6.1-1.95 9.07-3a453.3 453.3 0 0 0 9-3.3c5.8-2.2 11.6-4.44 17.3-6.9.51-.25.05-.97-.48-.75m.14 2.99c-6.07 2.28-12.01 4.76-18.15 6.84-2.91 1-5.85 1.95-8.72 3-2.86 1.03-6.03 2.02-8.48 3.71-.17.15-.1.5.18.4 3.01-.91 5.85-2.35 8.8-3.4 3-1.07 6-2.04 9-3.07a244.3 244.3 0 0 0 17.7-6.73c.47-.2.14-.93-.33-.75m-2.11 7.03a138.68 138.68 0 0 1-16.46 7.19l-8.34 3c-2.79 1.03-5.76 1.85-8.4 3.25-.27.13-.08.55.2.5 3.15-.66 6.27-2.07 9.3-3.15a593.3 593.3 0 0 0 8.3-3c5.39-1.99 10.79-4.12 15.84-6.98.52-.29.07-1.09-.44-.81m.07 6.46c-5.56 1.99-11.11 4-16.78 5.75-2.78.87-5.58 1.7-8.39 2.5-2.64.76-5.7 1.24-8.14 2.44-.16.07-.1.31.1.3 2.83-.12 5.86-1.25 8.57-2 2.82-.77 5.62-1.6 8.4-2.48 5.59-1.75 11.18-3.6 16.61-5.73.48-.18.14-.96-.36-.78m2.01 4.75c-3.13.78-6.2 2.13-9.26 3.16-3.1 1.04-6.2 2.05-9.34 2.98-3.05.9-6.12 1.72-9.21 2.44-2.44.57-5.62.8-7.51 2.43-.27.23.07.57.38.43 2.73-1.19 5.62-1.62 8.54-2.3 3.1-.74 6.17-1.56 9.21-2.48 3.04-.9 6.06-1.9 9.06-2.91 2.8-.96 5.82-1.79 8.49-3.01.45-.22.15-.87-.36-.74" fill="#BDCEDE" fill-rule="nonzero"/>
    <path d="M20 321.5c-.25 2.56-.46 5.14-.8 7.7-.11 1-.43 2.04-.86 2.98-.8 1.73-2.1 2.2-3.9 1.52a17.2 17.2 0 0 1-2.46-1.1c-2.7-1.5-5.41-2.98-8.06-4.57a4.2 4.2 0 0 1-2.2-4.03c.17-2.93-.38-5.78-.98-8.64-.34-1.7-.3-3.5-.13-5.23.25-2.59.2-5.15-.45-7.68-.3-1.22-.17-2.4.36-3.54.8-1.67 1.88-2.17 3.8-1.8.55.11 1.14.02 1.69.14 1.15.2 2.42.29 3.41.84 5.47 3.02 9.45 7.19 10.24 13.52.29 2.23.25 4.5.31 6.74.03 1.04-.06 2.08-.1 3.13l.13.02z" fill="#DEF0F5" fill-rule="nonzero"/>
    <path d="M16.65 332.21l-.02-1.7c-.08-2.59-.21-5.17-.24-7.79-.01-3.69.04-7.38.05-11.08 0-.34-.05-.66-.07-.99-.15-1.84-.78-3.1-2.66-4.09-4.02-2.08-7.8-4.63-11.66-7.02-.51-.31-1-.72-1.44-1.12-.98-.95-.75-2.26.5-2.8.35-.16.74-.23 1.14-.27 3.74-.36 7.49-.8 11.25-1.02 5.15-.34 10.3-.57 15.44-.71 4.65-.15 9.31-.07 13.98-.12 5.04-.07 10.08-.18 15.13-.25 8.59-.1 17.2-.2 25.79-.25 5.98-.01 11.97.03 17.97.17 4.37.12 8.73.42 13.1.68 1.57.1 3 .58 4.42 1.3a111.1 111.1 0 0 1 12.67 7.28c.6.4 1.2.8 1.74 1.25.76.63 1.26 1.3 1.01 2.43-.2.82.04 1.76.1 2.63.46 6.2-.3 12.37-.47 18.55-.02.6-.13 1.23-.3 1.8-.57 2.05-1.33 2.75-3.47 2.9-2.99.22-5.97.35-8.97.47-5.97.21-11.96.42-17.95.59-2.66.1-5.31.13-7.97.18-5 .12-9.98.2-14.96.34-4.56.13-9.1.3-13.62.56-4.6.26-9.19.73-13.78.97-6.37.33-12.74.61-19.1.78-4.94.13-9.88.05-14.82.12a8.18 8.18 0 0 1-4.28-1.08c-3.8-2.17-7.6-4.31-11.4-6.5-.67-.4-1.25-.9-1.72-1.52a1.5 1.5 0 0 1-.16-1.33c.29-.6.9-.48 1.44-.2 3.31 1.66 6.64 3.3 9.95 4.98 1.08.55 2.11 1.16 3.38 1.86" fill="#DF5632" fill-rule="nonzero"/>
    <path d="M30.45 315.8c-.59 1.26-.84 2.37-1.52 3.3a9.53 9.53 0 0 1-2.76 2.46c.35.2.6.34.85.46a6 6 0 0 1 2.41 2.04c.4.6.7 1.24 1.06 1.84.13.23.1.56.56.63a20.48 20.48 0 0 1 5.11-4.1l-.02-.2-.77-.48a8.4 8.4 0 0 1-3.2-3.06l-1.13-1.98-.59-.92m-.26-2.79c.2.13.39.22.48.35.45.63.87 1.27 1.29 1.9l1.88 2.86a6.02 6.02 0 0 0 2.02 1.84c.7.45 1.45.85 2.17 1.26.21.13.45.22.63.35.43.34.46.9.05 1.24-.29.25-.65.42-.99.64-1.04.7-2.11 1.4-3.15 2.11a10.4 10.4 0 0 0-2.84 2.86c-.1.15-.23.3-.39.42-.33.28-.96.2-1.18-.16-.17-.22-.27-.5-.38-.74-.3-.64-.57-1.3-.9-1.95a5.97 5.97 0 0 0-4.3-3.17c-.29-.06-.58-.12-.87-.2-.35-.09-.65-.26-.7-.63-.06-.38.15-.63.47-.81.27-.13.56-.22.8-.4.8-.52 1.64-1.05 2.4-1.64.76-.6 1.34-1.4 1.68-2.3.35-.92.64-1.85.96-2.8.07-.2.11-.47.27-.64.12-.16.36-.26.6-.39m9.35 10.84a.88.88 0 0 1-.68-.5.8.8 0 0 1 .3-.9 1.53 1.53 0 0 1 1.8.04c.28.2.3.64.02.88a2.9 2.9 0 0 1-1.44.48m-9.76-13.75c-.06.18-.16.49-.32.78-.14.27-.62.29-.77.02-.2-.32-.35-.67-.45-1.03-.11-.44.24-.88.67-.94.44-.06.83.28.86.75l.01.42" fill="#FFF" fill-rule="nonzero"/>
    <path d="M53 316.74c1.4.2 2.8.35 4.03.09 1.17-.27 2.1-1.04 2.04-1.73-.08-.72-1.23-1.55-2.69-1.92-1.26-.33-2.37-.25-2.93.19-.48.38-.55 1.08-.5 2.15l.06 1.22H53zM52.48 327a.98.98 0 0 1-.97-.94l-.48-10.44c-.05-.94-.13-2.72 1.24-3.82 1.48-1.16 3.7-.78 4.59-.55 1.87.47 3.94 1.7 4.14 3.66.19 1.98-1.64 3.44-3.55 3.85-1.43.34-2.9.19-4.34 0l.33 7.2a1 1 0 0 1-.93 1.04h-.03zm10.87 2c-.48 0-.87-.4-.9-.92l-.7-14.04a.94.94 0 0 1 .85-1.02c.42-.13.91.37.93.92l.72 14.04a.96.96 0 0 1-.85 1.02h-.05z" fill="#562111" fill-rule="nonzero"/>
    <path d="M70.01 320H70l-6.03-.2a.9.9 0 0 1 .02-1.8h.03l6.03.2c.5.03.88.44.87.94a.9.9 0 0 1-.9.87" fill="#562111" fill-rule="nonzero"/>
    <path d="M70.26 327c-.48 0-.87-.41-.9-.93l-.52-14.06a.95.95 0 0 1 .86-1.01c.54.03.91.4.94.93l.52 14.06a.95.95 0 0 1-.86 1.01h-.04zm5.21-6.8a.9.9 0 0 1-.88-.71 16.55 16.55 0 0 0-2.8-6.28.9.9 0 0 1 1.46-1.03 18.46 18.46 0 0 1 3.1 6.93c.1.5-.2.98-.7 1.07l-.18.03" fill="#562111" fill-rule="nonzero"/>
    <path d="M76.75 327h-.04c-.5-.04-.88-.5-.86-1.04.11-2.21-.06-3.58-.3-5.62l-.14-1.14a.99.99 0 0 1 .2-.75l5.4-7.1a.86.86 0 0 1 1.26-.13c.39.34.44.96.12 1.38l-5.14 6.77.08.72c.25 2.07.44 3.57.32 5.98-.02.52-.42.93-.9.93m11.68 0c-1.2 0-2.46-.38-3.96-1.18-.44-.23-.6-.81-.4-1.3a.88.88 0 0 1 1.22-.45c1.33.73 2.45 1.18 3.37.99 1.06-.05 2.02-.65 2.22-1.39.24-.84-.44-1.85-1.2-2.5-.6-.47-1.32-.86-2.06-1.26-.5-.26-1-.55-1.49-.85-1.7-1.06-2.71-2.45-2.86-3.92-.1-.96.23-1.97.9-2.75a3.75 3.75 0 0 1 2.48-1.36c.14-.03.28-.03.42-.03a4.06 4.06 0 0 1 3.93 3.15c.12.5-.18 1-.68 1.15a.91.91 0 0 1-1.07-.75c-.2-.94-1.36-1.63-2.41-1.6-.5.06-1 .32-1.35.74-.3.38-.46.83-.43 1.25.09.81.8 1.7 1.98 2.45.45.28.91.54 1.38.78.78.44 1.6.87 2.32 1.45 1.25 1.02 2.4 2.77 1.87 4.62-.43 1.53-2.03 2.67-3.86 2.76h-.32zm25 0a8.1 8.1 0 0 1-3.96-1.2.98.98 0 0 1-.38-1.27.86.86 0 0 1 1.2-.43c1.33.72 2.34 1.12 3.37.98 1.07-.05 2.01-.64 2.23-1.39.24-.86-.44-1.87-1.22-2.5-.6-.48-1.31-.87-2.06-1.28-.5-.25-1-.54-1.47-.83-1.7-1.06-2.71-2.47-2.86-3.92a3.87 3.87 0 0 1 3.36-4.12c2-.32 4 1.2 4.37 3.12.11.5-.18 1-.68 1.14-.56.1-.98-.23-1.07-.75-.2-.96-1.47-1.66-2.41-1.61-1.02.13-1.88 1.09-1.78 2.02.08.83.8 1.72 1.98 2.47.44.26.9.52 1.37.76.78.44 1.6.88 2.33 1.47 1.57 1.25 2.3 3.06 1.86 4.58-.44 1.54-2.02 2.67-3.87 2.76h-.31zm-18.13 0c-.49 0-.9-.44-.9-1 0-2.07-.15-4.54-.3-6.94-.14-2.42-.3-4.92-.3-7.04 0-.56.39-1 .9-1.02.49 0 .9.44.9 1 0 2.05.16 4.54.3 6.93.15 2.42.3 4.93.3 7.05 0 .56-.39 1-.9 1.02zm7.85 0c-.63 0-1.27-.14-1.8-.36a5.4 5.4 0 0 1-2.76-2.93c-.4-1.1-.65-2.24-.72-3.41l-.4-3.63c-.12-1.22-.39-3.73 1.53-5.05 1.35-.94 3.52-.8 4.93.33a4.5 4.5 0 0 1 1.55 4.42c-.1.52-.55.8-1.08.73-.48-.12-.78-.65-.67-1.17a2.4 2.4 0 0 0-.86-2.4c-.8-.67-2.18-.78-2.9-.26-.81.54-.86 1.66-.7 3.18l.4 3.62c.09.97.2 1.95.57 2.84.33.85.98 1.53 1.8 1.92.81.35 1.9.27 2.41-.2.46-.42.37-1.07.31-1.32-.12-.65-.53-1.33-.9-1.99a1.02 1.02 0 0 1 .28-1.34.88.88 0 0 1 1.25.3c.43.77.93 1.63 1.14 2.6a3.42 3.42 0 0 1-.9 3.22c-.66.63-1.58.9-2.48.9" fill="#562111" fill-rule="nonzero"/>
    <path d="M30.24 331.95c.02-.16.03-.33.07-.5.07-.26.37-.49.66-.5.3 0 .58.2.68.47.15.37.15.75 0 1.13-.1.3-.34.5-.64.5a.7.7 0 0 1-.72-.59c-.03-.17-.03-.32-.05-.51m-9.12-9.08c-.1.18-.13.36-.25.47-.4.35-.87.54-1.4.41a.68.68 0 0 1-.56-.5.74.74 0 0 1 .25-.78 1.56 1.56 0 0 1 1.7-.02c.1.1.16.27.26.42" fill="#FFF" fill-rule="nonzero"/>
    <path d="M132.57 303.77c-29.88.2-59.74.83-89.6 1.25l-12.81.18c-4.25.06-8.56-.05-12.8.29-.47.03-.49.64 0 .66 3.74.19 7.53 0 11.27-.05l11.28-.16c7.54-.1 15.04-.21 22.57-.33l44.5-.63c8.54-.12 17.07-.2 25.59-.38.57-.03.57-.83 0-.83" fill="#010101" fill-rule="nonzero"/>
    <path d="M154.73 282.5c.3-.77-.97-.9-1.23-1.4 1.29-.3 2.37.1 2.48 1 .06.61-.01 1.25-.27 1.84-.43 1.07-.67 2.1-.24 3.21.32.83.24 1.68-.38 2.44-.86 1.09-.9 2.26-.7 3.46.13.73.12 1.47.15 2.2.02.71-.43 1.27-1.26 1.7-1.69.9-3.51 1.54-5.4 1.87-.6.11-1.26.18-1.88.18-3.58-.03-5.6-1.28-5.92-3.62-.47-3.46 1.21-6.38 4.7-8.84a21.28 21.28 0 0 1 9.66-3.88c.1-.02.16-.08.29-.15" fill="#DEF0F5" fill-rule="nonzero"/>
    <path d="M144.54 297.74c.53-.12 1-.21 1.42-.32 2.17-.58 4.32-1.17 6.5-1.73.65-.18 1.33-.34 2.03-.4 1.19-.1 1.92.41 1.44 1.04-.3.36-.8.7-1.36.95-.88.37-1.87.68-2.82 1-1.44.48-2.93.92-4.34 1.43a23.4 23.4 0 0 1-8.43 1.29c-6.23-.04-12.46-.18-18.7-.31-2.46-.06-4.93-.28-7.38-.36-3.5-.1-6.97-.18-10.44-.2-2.8-.02-5.6.05-8.4.02-4.66-.06-9.33-.2-13.99-.27-4.54-.06-9.09-.13-13.62-.14-8.2-.04-16.39.09-24.58-.27-1-.04-2-.17-3-.27-1.24-.13-2.04-.58-2.25-1.33-.44-1.46-.92-2.94-1.22-4.4-.25-1.3-.39-2.6-.4-3.88 0-1.12.17-2.24.4-3.34.2-.9 1.06-1.59 2.43-1.98A278.9 278.9 0 0 1 49.52 281c2.1-.5 4.21-.98 6.32-1.45.31-.07.68-.1.95-.2 3.71-1.26 7.9-1.1 12.02-1.13l18.65-.11c5.67-.04 11.32-.1 16.99-.12 2.9-.01 5.82.07 8.74.1 4.95.08 9.89.13 14.82.27 5.16.16 10.32.35 15.49.62 3.63.2 7.25.5 10.89.8.77.05 1.55.22 2.27.42 1.26.35 1.7 1.03 1.03 1.73-.42.45-1 .86-1.62 1.2-3 1.76-6.55 3.08-10.16 4.33-.78.28-1.33.53-1.34 1.1-.07 2.91-.17 5.8-.25 8.71 0 .13.12.25.22.46" fill="#010101" fill-rule="nonzero"/>
    <path d="M144 287.45c-.17.07-.33.18-.52.2-.7.05-1.44.08-2.17.1-1.12.02-2.24.05-3.37.05-2.8-.03-5.61-.04-8.44-.1-4.28-.08-8.56-.25-12.84-.32-5.4-.11-10.8-.16-16.2-.2-4.62-.05-9.24-.08-13.85-.09-2.31-.01-4.61.02-6.92.04h-1.34c-3.94-.06-7.87.02-11.8.1-2.8.08-5.61.11-8.42.18-2.68.05-5.37.15-8.07.2-3.2.06-6.4.09-9.6.07a7.4 7.4 0 0 1-1.15-.1c-.14-.02-.31-.15-.31-.21.01-.11.1-.26.25-.3.22-.08.5-.11.77-.12 2.81-.04 5.64-.06 8.43-.12 2.13-.04 4.26-.12 6.4-.17l5.54-.13c2.92-.08 5.83-.15 8.75-.2 1.97-.06 3.94-.06 5.9-.07 2.36-.02 4.72-.05 7.09-.06h1.01c3.1.03 6.19.07 9.28.07 3 .03 5.96-.02 8.94 0 3.66.03 7.32.06 10.99.15 6.76.14 13.5.32 20.27.48 2.02.05 4.05.02 6.08.06 1.23.02 2.48.07 3.72.13.53.02 1.13.04 1.58.36m-96.9 4.09c-1.04 0-2.03.16-2.94.45-.01-.73.1-1.52.7-2.15.25-.25.56-.41.87-.56.2-.07.4-.22.6-.26.57-.15 1.08.54 1.29.95.25.5.35 1.06.4 1.6-.35-.05-.7-.03-.92-.03m.88 1.37c-.08.48-.27.94-.53 1.38-.23.34-.5.84-.8 1.12-.32.31-.58-.09-.8-.27a4.48 4.48 0 0 1-1.35-1.6c-.03-.1-.23-.79-.27-.8a7.6 7.6 0 0 0 3.76.05l-.01.12m1.01-1.42a3.8 3.8 0 0 0-1.02-2.41c-.66-.6-1.7-.88-2.54-.52l-.85.37s-.52-.29-.74-.43c-.37-.24-.8-.4-1.23-.49-.3-.06-.73.08-.65.35.02.1.1.17.18.23.56.44 1.2.76 1.88.98-.5.69-.79 1.48-.88 2.3 0 0-1.78.02-1.94.11-.45.28-.05.87.34.97.28.06.6.03.9.03.28 0 .58.03.85-.03.2.53.43 1.02.64 1.54l.3.68s-.48.45-.68.57c-.34.2-.62.43-.79.79-.09.2.01.5.28.47.36-.04.72-.17 1.04-.36.28-.17.66-.43.8-.7 0 0 1.1.38 1.68.44.55.04.9-.36 1.23-.8.34-.45.7-.92.84-1.45a8.5 8.5 0 0 0 .36-2.64" fill="#FFF" fill-rule="nonzero"/>
    <path d="M154.1 285.26c-2 .34-4.03 1.2-5.92 1.93-.39.15-2.7.83-2.65 1.3v.02c0 .14.1.23.22.23 1.25.04 2.9-.98 4.08-1.4 1.5-.53 3.04-.93 4.5-1.55.32-.14.06-.58-.22-.53m-.83 4.27c-1.1.15-2.25.7-3.32 1.05-1.14.37-2.36.8-3.36 1.48v.01c-.19.1-.1.47.16.4 1.3-.34 2.53-.9 3.82-1.29.96-.3 2.16-.49 2.86-1.25.12-.13.05-.43-.16-.4m-.1 3.12c-1.25.16-2.45.73-3.62 1.14-1 .36-2.23.6-3 1.36-.07.07-.02.18.08.19 1.11.1 2.31-.5 3.37-.87 1.1-.36 2.31-.63 3.32-1.24.24-.15.16-.62-.15-.58" fill="#BDCEDE" fill-rule="nonzero"/>
  </g>
</svg>
